<?xml version="1.0" encoding="UTF-8"?>
<svg width="75" height="75" xmlns="http://www.w3.org/2000/svg" xmlns:svg="http://www.w3.org/2000/svg">
 <g transform="scale(0.19845)">
 <g transform="translate(0,117)">
<g>
<title>Layer 1</title>
<g id="svg_117">
<path id="svg_118" d="m325.423,107.165c-0.317,0.06 -0.588,0.656 -0.361,0.952c0.225,0.299 0.442,0.547 0.759,0.547c0.313,0 1.858,-0.665 2.625,-0.903c0.768,-0.238 1.985,-0.416 2.889,-0.536c0.904,-0.119 4.909,-0.399 5.282,-0.535c0.361,-0.133 0.676,-0.06 0.632,-0.596c-0.044,-0.535 -0.239,-0.616 -0.541,-0.654c-1.216,-0.155 -1.92,0.087 -3.056,0.171c-1.14,0.082 -1.729,0.126 -3.084,0.305c-1.354,0.178 -5.145,1.249 -5.145,1.249z" stroke-width="0.622" stroke="#000000" clip-rule="evenodd" fill-rule="evenodd"/>
<path id="svg_119" d="m337.604,82.81c0,0 1.887,6.994 1.51,8.245c-0.377,1.251 -2.991,3.823 -3.165,5.391c-0.175,1.568 1.045,12.589 1.219,14.68c0.174,2.091 -1.549,6.604 -1.549,6.604s13.785,1.529 15.42,1.731c1.637,0.202 15.402,0.899 15.402,0.899l-0.698,-38.944l-28.139,1.394z" fill="#ff0000" clip-rule="evenodd" fill-rule="evenodd"/>
<path id="svg_120" d="m337.822,82.897c0,0.217 0.915,4.225 1.003,4.966c0.085,0.739 0.478,1.567 0.347,2.525c-0.168,1.246 -1.438,3.051 -2.396,4.489c-1.481,0.914 -0.618,4.439 -0.618,4.439s9.417,-0.956 10.245,-1.435c0.827,-0.479 6.665,-1.307 8.537,-2.31c1.875,-1.001 4.313,-2.656 5.098,-3.311c0.784,-0.653 5.881,-2.526 5.881,-2.526s-0.044,-8.016 -0.044,-8.189" fill="#ff0000" clip-rule="evenodd" fill-rule="evenodd"/>
<path id="svg_121" d="m364.498,107.839c0.166,0 0.332,0 0.498,0c0,-0.329 0,-0.658 0,-0.988c-0.748,-0.25 -0.441,0.551 -0.498,0.988z" fill="#CBBFBB" clip-rule="evenodd" fill-rule="evenodd"/>
<path id="svg_122" d="m362.755,99.433c0.292,-0.042 0.272,-0.39 0.251,-0.742c0.461,-0.825 -0.894,-1.042 -0.995,-0.495c0,0.248 0,0.495 0,0.743c0.354,0.059 0.419,0.407 0.744,0.494z" fill="#CBBFBB" clip-rule="evenodd" fill-rule="evenodd"/>
<path id="svg_123" d="m363.503,97.95c-0.566,1.135 1.021,2.222 1.244,0.99c-0.397,-0.379 -0.542,-1.66 -1.244,-0.99z" fill="#CBBFBB" clip-rule="evenodd" fill-rule="evenodd"/>
<path id="svg_124" d="m362.646,92.053c-0.015,0.004 -0.028,0.011 -0.041,0.017c0.338,0.34 0.681,0.673 1.022,1.01c-0.189,-0.15 -0.322,-0.256 -0.274,-0.219c0.073,0.059 0.143,0.117 0.214,0.173c0.022,0.018 0.042,0.041 0.069,0.052c-0.302,-0.293 -0.6,-0.597 -0.9,-0.889c-0.042,-0.042 -0.089,-0.082 -0.128,-0.127c0.012,-0.007 0.028,-0.009 0.038,-0.017z" fill="#F4A63A" clip-rule="evenodd" fill-rule="evenodd"/>
<path id="svg_125" d="m362.292,95.014c0.032,0.019 0.076,0.027 0.115,0.041c0.408,-0.326 0.811,-0.655 1.217,-0.983c-0.076,0.083 -0.17,0.166 -0.25,0.253c0.086,-0.088 0.18,-0.172 0.263,-0.266c-0.375,0.305 -0.772,0.623 -1.152,0.93c-0.022,0.018 -0.06,0.059 -0.08,0.061c-0.016,0.001 -0.042,-0.011 -0.06,-0.015c-0.019,-0.008 -0.038,-0.018 -0.053,-0.021z" fill="#F4A63A" clip-rule="evenodd" fill-rule="evenodd"/>
<g id="svg_126">
<path id="svg_127" d="m367.967,120.23c0,0 -17.425,-0.873 -28.535,-2.048c-1.175,2.482 -0.348,9.147 -0.348,9.147s21.302,-0.435 27.182,-1.48c1.44,-2.091 1.701,-5.619 1.701,-5.619z" fill="#ff0000" clip-rule="evenodd" fill-rule="evenodd" opacity="0.98"/>
<rect id="svg_128" height="39.469" width="0.917" fill="#ff0000" clip-rule="evenodd" fill-rule="evenodd" transform="matrix(0.9998,-0.0176,0.0176,0.9998,-1.7121,6.4556) " y="80.936" x="366.095"/>
<path id="svg_129" d="m367.967,23.734c0,0 -17.425,0.872 -28.535,2.048c-1.175,-2.484 -0.348,-9.148 -0.348,-9.148s21.302,0.435 27.182,1.481c1.44,2.091 1.701,5.619 1.701,5.619z" fill="#ff0000" clip-rule="evenodd" fill-rule="evenodd" opacity="0.98"/>
<rect id="svg_130" height="39.469" width="0.917" fill="#ff0000" clip-rule="evenodd" fill-rule="evenodd" transform="matrix(0.9998,0.0176,-0.0176,0.9998,0.8172,-6.4334) " y="23.559" x="366.095"/>
</g>
<path id="svg_131" d="m325.423,36.798c-0.317,-0.06 -0.588,-0.655 -0.361,-0.952c0.225,-0.298 0.442,-0.547 0.759,-0.547c0.313,0 1.858,0.665 2.625,0.904c0.768,0.237 1.985,0.415 2.889,0.535c0.904,0.12 4.909,0.399 5.282,0.536c0.361,0.133 0.676,0.06 0.632,0.596c-0.044,0.535 -0.239,0.616 -0.541,0.654c-1.216,0.156 -1.92,-0.087 -3.056,-0.17c-1.14,-0.082 -1.729,-0.126 -3.084,-0.304c-1.354,-0.18 -5.145,-1.252 -5.145,-1.252z" stroke-width="0.622" stroke="#000000" clip-rule="evenodd" fill-rule="evenodd"/>
<path id="svg_132" d="m337.604,61.155c0,0 1.887,-6.995 1.51,-8.246c-0.377,-1.252 -2.991,-3.821 -3.165,-5.391c-0.175,-1.568 1.045,-12.588 1.219,-14.68c0.174,-2.09 -1.549,-6.604 -1.549,-6.604s13.785,-1.529 15.42,-1.73c1.637,-0.203 15.402,-0.9 15.402,-0.9l-0.698,38.945l-28.139,-1.394z" fill="#ff0000" clip-rule="evenodd" fill-rule="evenodd"/>
<path id="svg_133" d="m337.822,61.066c0,-0.218 0.915,-4.224 1.003,-4.965c0.085,-0.741 0.478,-1.568 0.347,-2.526c-0.168,-1.244 -1.438,-3.051 -2.396,-4.487c-1.481,-0.916 -0.618,-4.441 -0.618,-4.441s9.417,0.955 10.245,1.435c0.827,0.479 6.665,1.307 8.537,2.309c1.875,1.001 4.313,2.658 5.098,3.311c0.784,0.653 5.881,2.526 5.881,2.526s-0.044,8.016 -0.044,8.19" fill="#ff0000" clip-rule="evenodd" fill-rule="evenodd"/>
<path id="svg_134" d="m364.498,36.123c0.166,0 0.332,0 0.498,0c0,0.331 0,0.661 0,0.99c-0.748,0.25 -0.441,-0.552 -0.498,-0.99z" fill="#CBBFBB" clip-rule="evenodd" fill-rule="evenodd"/>
<path id="svg_135" d="m362.755,44.531c0.292,0.042 0.272,0.39 0.251,0.741c0.461,0.826 -0.894,1.042 -0.995,0.495c0,-0.247 0,-0.495 0,-0.742c0.354,-0.059 0.419,-0.406 0.744,-0.494z" fill="#CBBFBB" clip-rule="evenodd" fill-rule="evenodd"/>
<path id="svg_136" d="m363.503,46.015c-0.566,-1.135 1.021,-2.222 1.244,-0.99c-0.397,0.378 -0.542,1.659 -1.244,0.99z" fill="#CBBFBB" clip-rule="evenodd" fill-rule="evenodd"/>
<path id="svg_137" d="m362.357,51.85c-0.151,-0.049 -0.271,-0.127 -0.359,-0.237c0.507,-0.291 1.015,-0.583 1.519,-0.876c-0.163,0.074 -0.321,0.149 -0.483,0.224c0.165,-0.08 0.333,-0.159 0.502,-0.234c-0.507,0.298 -1.022,0.592 -1.533,0.886c0.003,0.017 0.018,0.028 0.029,0.039c0.088,0.085 0.195,0.155 0.325,0.196l0,0.002z" fill="#F4A63A" clip-rule="evenodd" fill-rule="evenodd"/>
<path id="svg_138" d="m362.646,51.911c-0.015,-0.004 -0.028,-0.011 -0.041,-0.017c0.338,-0.34 0.681,-0.673 1.022,-1.011c-0.189,0.15 -0.322,0.255 -0.274,0.218c0.073,-0.058 0.143,-0.117 0.214,-0.172c0.022,-0.018 0.042,-0.042 0.069,-0.052c-0.302,0.293 -0.6,0.597 -0.9,0.89c-0.042,0.042 -0.089,0.082 -0.128,0.127c0.012,0.006 0.028,0.01 0.038,0.017z" fill="#F4A63A" clip-rule="evenodd" fill-rule="evenodd"/>
<path id="svg_139" d="m362.292,48.951c0.032,-0.019 0.076,-0.029 0.115,-0.041c0.408,0.325 0.811,0.653 1.217,0.981c-0.076,-0.083 -0.17,-0.166 -0.25,-0.252c0.086,0.087 0.18,0.171 0.263,0.265c-0.375,-0.305 -0.772,-0.622 -1.152,-0.929c-0.022,-0.018 -0.06,-0.06 -0.08,-0.062c-0.016,-0.001 -0.042,0.011 -0.06,0.017c-0.019,0.007 -0.038,0.018 -0.053,0.021z" fill="#F4A63A" clip-rule="evenodd" fill-rule="evenodd"/>
<polygon id="svg_140" points="291.616,30.873 292.126,39.112 278.622,59.063 267.73,58.104  " fill="#333333" opacity="0.97"/>
<polygon id="svg_141" points="291.877,113.516 292.386,105.277 278.882,85.325 267.992,86.284  " fill="#333333"/>
<rect id="svg_142" height="83.289" width="14.639" y="30.226" x="291.689"/>
<path id="svg_143" d="m271.923,136.444c-0.317,-0.789 -0.278,-1.905 0.197,-3.358c-0.246,-1.617 -0.359,-3.136 -0.049,-4.002c-0.653,-1.47 -0.327,-2.891 0.081,-3.708c-0.734,-1.96 -0.081,-3.708 -0.081,-3.708s-0.265,-3.257 1.177,-4.932c0.701,-0.817 2.424,-2.577 6.189,-3.161c3.22,-0.499 7.904,-0.51 10.543,-0.562c3.669,-0.07 14.679,0.17 14.679,0.17s10.141,0.739 11.808,1.024c2.043,0.348 2.941,0.72 4.332,1.852c1.044,0.849 2.993,2.28 3.507,3.384c0.43,0.926 0.534,3.2 0.402,4.224c0.021,1.097 0.088,2.962 -0.108,4.008c0.036,1.078 0.457,3.18 0.108,4.684c-0.059,1.04 0.109,2.657 -0.436,3.898c-0.287,1.459 -0.796,4.044 -2.887,5.155c-1.032,0.549 -1.64,0.994 -5.815,1.568c-1.71,0.235 -4.839,0.407 -8.359,0.526c-7.245,0.244 -16.152,-0.066 -17.779,-0.199c-1.736,-0.14 -10.651,-2.09 -10.651,-2.09s-4.823,-1.516 -5.764,-2.737c-0.437,-0.571 -0.827,-1.372 -1.094,-2.036z" stroke-width="0.5227" stroke="#000000" clip-rule="evenodd" fill-rule="evenodd"/>
<path id="svg_144" d="m276.662,122.881c1.24,0.391 15.834,1.525 17.926,1.59c2.09,0.065 25.548,-0.653 27.508,-1.176" stroke-width="0.2614" stroke="#4D4D4D" fill="none" clip-rule="evenodd" fill-rule="evenodd"/>
<path id="svg_145" d="m276.356,126.453c17.055,2.94 43.888,1.373 45.849,0.85" stroke-width="0.2614" stroke="#4D4D4D" fill="none" clip-rule="evenodd" fill-rule="evenodd"/>
<path id="svg_146" d="m280.189,130.156c17.056,2.94 36.417,1.285 39.554,0.435" stroke-width="0.5227" stroke="#1A1A1A" fill="none" clip-rule="evenodd" fill-rule="evenodd"/>
<path id="svg_147" d="m277.969,134.033c17.055,2.94 38.683,1.634 41.819,0.784" stroke-width="0.5227" stroke="#1A1A1A" fill="none" clip-rule="evenodd" fill-rule="evenodd"/>
<path id="svg_148" d="m279.754,130.853c17.056,2.941 36.287,1.372 39.424,0.522" stroke-width="0.2614" stroke="#4D4D4D" fill="none" clip-rule="evenodd" fill-rule="evenodd"/>
<path id="svg_149" d="m278.708,134.817c17.054,2.94 37.855,1.459 40.991,0.61" stroke-width="0.2614" stroke="#4D4D4D" fill="none" clip-rule="evenodd" fill-rule="evenodd"/>
<path id="svg_150" d="m278.229,122.359c1.242,0.392 14.267,1.22 16.356,1.284c2.092,0.066 25.55,-0.653 27.51,-1.175" stroke-width="0.5227" stroke="#1A1A1A" fill="none" clip-rule="evenodd" fill-rule="evenodd"/>
<path id="svg_151" d="m276.704,126.017c17.054,2.941 43.54,1.286 45.5,0.763" stroke-width="0.5227" stroke="#1A1A1A" fill="none" clip-rule="evenodd" fill-rule="evenodd"/>
<path id="svg_152" d="m272.915,117.044c0,0 -1.08,1.119 2.004,1.787c3.223,0.697 19.538,1.266 21.214,1.306c1.787,0.044 20.822,0.087 22.478,-0.043c1.656,-0.131 4.748,0.218 5.27,-1.525" stroke-width="0.1307" stroke="#808080" fill="none" clip-rule="evenodd" fill-rule="evenodd"/>
<path id="svg_153" d="m272.055,136.695c0.457,0.686 0.276,1.406 2.864,1.999c3.214,0.738 19.538,1.266 21.214,1.307c1.787,0.043 20.822,0.086 22.478,-0.045c1.656,-0.13 4.748,0.218 5.27,-1.524" stroke-width="0.1307" stroke="#808080" fill="none" clip-rule="evenodd" fill-rule="evenodd"/>
<path id="svg_154" d="m271.4,23.705c-0.315,-0.788 -0.277,-1.903 0.197,-3.357c-0.246,-1.617 -0.359,-3.136 -0.049,-4.002c-0.653,-1.47 -0.327,-2.891 0.083,-3.708c-0.736,-1.96 -0.083,-3.709 -0.083,-3.709s-0.265,-3.255 1.175,-4.932c0.704,-0.817 2.427,-2.576 6.192,-3.159c3.218,-0.5 7.904,-0.511 10.542,-0.562c3.67,-0.071 14.681,0.169 14.681,0.169s10.139,0.739 11.808,1.024c2.044,0.348 2.939,0.721 4.331,1.852c1.045,0.849 2.993,2.279 3.507,3.383c0.432,0.927 0.535,3.202 0.404,4.226c0.021,1.096 0.086,2.963 -0.11,4.008c0.037,1.077 0.458,3.18 0.11,4.682c-0.058,1.041 0.108,2.659 -0.437,3.899c-0.287,1.459 -0.795,4.044 -2.887,5.155c-1.032,0.548 -1.638,0.993 -5.814,1.569c-1.708,0.235 -4.838,0.406 -8.357,0.524c-7.246,0.246 -16.154,-0.065 -17.781,-0.198c-1.734,-0.14 -10.651,-2.09 -10.651,-2.09s-4.821,-1.517 -5.764,-2.737c-0.439,-0.571 -0.83,-1.372 -1.097,-2.037z" stroke-width="0.5227" stroke="#000000" clip-rule="evenodd" fill-rule="evenodd"/>
<path id="svg_155" d="m276.138,10.144c1.242,0.393 15.835,1.524 17.925,1.59c2.092,0.065 25.549,-0.653 27.511,-1.176" stroke-width="0.2614" stroke="#4D4D4D" fill="none" clip-rule="evenodd" fill-rule="evenodd"/>
<path id="svg_156" d="m275.833,13.715c17.056,2.942 43.89,1.373 45.849,0.85" stroke-width="0.2614" stroke="#4D4D4D" fill="none" clip-rule="evenodd" fill-rule="evenodd"/>
<path id="svg_157" d="m279.667,17.418c17.054,2.94 36.417,1.285 39.554,0.436" stroke-width="0.5227" stroke="#1A1A1A" fill="none" clip-rule="evenodd" fill-rule="evenodd"/>
<path id="svg_158" d="m277.445,21.296c17.054,2.94 38.683,1.632 41.819,0.784" stroke-width="0.5227" stroke="#1A1A1A" fill="none" clip-rule="evenodd" fill-rule="evenodd"/>
<path id="svg_159" d="m279.232,18.116c17.054,2.939 36.285,1.372 39.422,0.522" stroke-width="0.2614" stroke="#4D4D4D" fill="none" clip-rule="evenodd" fill-rule="evenodd"/>
<path id="svg_160" d="m278.187,22.08c17.055,2.941 37.854,1.459 40.991,0.609" stroke-width="0.2614" stroke="#4D4D4D" fill="none" clip-rule="evenodd" fill-rule="evenodd"/>
<path id="svg_161" d="m277.707,9.621c1.24,0.392 14.267,1.218 16.356,1.285c2.091,0.065 25.549,-0.653 27.509,-1.176" stroke-width="0.5227" stroke="#1A1A1A" fill="none" clip-rule="evenodd" fill-rule="evenodd"/>
<path id="svg_162" d="m276.182,13.28c17.055,2.939 43.54,1.284 45.499,0.762" stroke-width="0.5227" stroke="#1A1A1A" fill="none" clip-rule="evenodd" fill-rule="evenodd"/>
<path id="svg_163" d="m272.392,4.306c0,0 -1.08,1.119 2.004,1.786c3.224,0.697 19.54,1.266 21.216,1.306c1.785,0.043 20.821,0.087 22.476,-0.043c1.656,-0.131 4.75,0.217 5.271,-1.525" stroke-width="0.1307" stroke="#808080" fill="none" clip-rule="evenodd" fill-rule="evenodd"/>
<path id="svg_164" d="m271.532,23.958c0.458,0.686 0.278,1.404 2.864,1.999c3.216,0.738 19.54,1.266 21.216,1.306c1.785,0.044 20.821,0.087 22.476,-0.043c1.656,-0.131 4.75,0.218 5.271,-1.525" stroke-width="0.1307" stroke="#808080" fill="none" clip-rule="evenodd" fill-rule="evenodd"/>
<path id="svg_165" d="m44.791,29.457c-0.315,-0.79 -0.276,-1.905 0.196,-3.358c-0.243,-1.618 -0.357,-3.137 -0.047,-4.003c-0.654,-1.47 -0.328,-2.892 0.081,-3.708c-0.735,-1.96 -0.081,-3.709 -0.081,-3.709s-0.266,-3.257 1.176,-4.932c0.702,-0.817 2.424,-2.576 6.189,-3.16c3.219,-0.499 7.903,-0.51 10.543,-0.561c3.669,-0.072 14.679,0.169 14.679,0.169s10.141,0.739 11.81,1.023c2.043,0.35 2.939,0.722 4.331,1.852c1.045,0.848 2.993,2.28 3.507,3.383c0.432,0.927 0.534,3.202 0.404,4.225c0.021,1.095 0.087,2.963 -0.109,4.008c0.037,1.078 0.458,3.18 0.109,4.683c-0.059,1.041 0.108,2.658 -0.437,3.899c-0.288,1.459 -0.795,4.044 -2.887,5.155c-1.031,0.547 -1.64,0.993 -5.814,1.568c-1.71,0.234 -4.838,0.406 -8.359,0.524c-7.245,0.244 -16.151,-0.067 -17.778,-0.198c-1.737,-0.142 -10.651,-2.09 -10.651,-2.09s-4.822,-1.519 -5.765,-2.738c-0.439,-0.567 -0.829,-1.368 -1.097,-2.032z" stroke-width="0.5227" stroke="#000000" clip-rule="evenodd" fill-rule="evenodd"/>
<path id="svg_166" d="m49.53,15.894c1.241,0.391 15.834,1.523 17.926,1.589c2.091,0.065 25.549,-0.653 27.509,-1.176" stroke-width="0.2614" stroke="#4D4D4D" fill="none" clip-rule="evenodd" fill-rule="evenodd"/>
<path id="svg_167" d="m49.225,19.466c17.054,2.94 43.889,1.371 45.85,0.85" stroke-width="0.2614" stroke="#4D4D4D" fill="none" clip-rule="evenodd" fill-rule="evenodd"/>
<path id="svg_168" d="m53.058,23.168c17.055,2.94 36.418,1.285 39.555,0.436" stroke-width="0.5227" stroke="#1A1A1A" fill="none" clip-rule="evenodd" fill-rule="evenodd"/>
<path id="svg_169" d="m50.837,27.046c17.054,2.94 38.683,1.633 41.819,0.784" stroke-width="0.5227" stroke="#1A1A1A" fill="none" clip-rule="evenodd" fill-rule="evenodd"/>
<path id="svg_170" d="m52.623,23.865c17.054,2.941 36.287,1.373 39.423,0.523" stroke-width="0.2614" stroke="#4D4D4D" fill="none" clip-rule="evenodd" fill-rule="evenodd"/>
<path id="svg_171" d="m51.578,27.83c17.054,2.94 37.854,1.459 40.991,0.61" stroke-width="0.2614" stroke="#4D4D4D" fill="none" clip-rule="evenodd" fill-rule="evenodd"/>
<path id="svg_172" d="m51.098,15.371c1.242,0.393 14.266,1.22 16.358,1.286c2.09,0.064 25.549,-0.653 27.509,-1.177" stroke-width="0.5227" stroke="#1A1A1A" fill="none" clip-rule="evenodd" fill-rule="evenodd"/>
<path id="svg_173" d="m49.573,19.031c17.055,2.94 43.541,1.285 45.501,0.761" stroke-width="0.5227" stroke="#1A1A1A" fill="none" clip-rule="evenodd" fill-rule="evenodd"/>
<path id="svg_174" d="m45.784,10.057c0,0 -1.08,1.119 2.003,1.786c3.223,0.698 19.539,1.267 21.215,1.307c1.786,0.043 20.822,0.086 22.478,-0.045c1.656,-0.13 4.748,0.22 5.271,-1.523" stroke-width="0.1307" stroke="#808080" fill="none" clip-rule="evenodd" fill-rule="evenodd"/>
<path id="svg_175" d="m44.923,29.708c0.457,0.686 0.278,1.404 2.864,1.998c3.214,0.738 19.539,1.267 21.215,1.308c1.786,0.043 20.822,0.086 22.478,-0.044s4.748,0.219 5.271,-1.524" stroke-width="0.1307" stroke="#808080" fill="none" clip-rule="evenodd" fill-rule="evenodd"/>
<path id="svg_176" d="m44.791,133.22c-0.315,-0.789 -0.276,-1.904 0.196,-3.357c-0.243,-1.619 -0.357,-3.138 -0.047,-4.002c-0.654,-1.471 -0.328,-2.892 0.081,-3.708c-0.735,-1.961 -0.081,-3.71 -0.081,-3.71s-0.266,-3.256 1.176,-4.931c0.702,-0.817 2.424,-2.577 6.189,-3.16c3.219,-0.499 7.903,-0.511 10.543,-0.562c3.669,-0.072 14.679,0.17 14.679,0.17s10.141,0.738 11.81,1.023c2.043,0.349 2.939,0.721 4.331,1.851c1.045,0.85 2.993,2.28 3.507,3.383c0.432,0.926 0.534,3.201 0.404,4.225c0.021,1.096 0.087,2.963 -0.109,4.009c0.037,1.077 0.458,3.18 0.109,4.682c-0.059,1.042 0.108,2.658 -0.437,3.9c-0.288,1.458 -0.795,4.044 -2.887,5.154c-1.031,0.55 -1.64,0.994 -5.814,1.569c-1.71,0.235 -4.838,0.406 -8.359,0.524c-7.245,0.245 -16.151,-0.066 -17.778,-0.198c-1.737,-0.141 -10.651,-2.091 -10.651,-2.091s-4.822,-1.517 -5.765,-2.737c-0.439,-0.568 -0.829,-1.37 -1.097,-2.034z" stroke-width="0.5227" stroke="#000000" clip-rule="evenodd" fill-rule="evenodd"/>
<path id="svg_177" d="m49.53,119.658c1.241,0.392 15.834,1.524 17.926,1.589c2.091,0.066 25.549,-0.653 27.509,-1.176" stroke-width="0.2614" stroke="#4D4D4D" fill="none" clip-rule="evenodd" fill-rule="evenodd"/>
<path id="svg_178" d="m49.225,123.229c17.054,2.941 43.889,1.374 45.85,0.85" stroke-width="0.2614" stroke="#4D4D4D" fill="none" clip-rule="evenodd" fill-rule="evenodd"/>
<path id="svg_179" d="m53.058,126.932c17.055,2.94 36.418,1.285 39.555,0.437" stroke-width="0.5227" stroke="#1A1A1A" fill="none" clip-rule="evenodd" fill-rule="evenodd"/>
<path id="svg_180" d="m50.837,130.81c17.054,2.94 38.683,1.633 41.819,0.784" stroke-width="0.5227" stroke="#1A1A1A" fill="none" clip-rule="evenodd" fill-rule="evenodd"/>
<path id="svg_181" d="m52.623,127.63c17.054,2.94 36.287,1.371 39.423,0.522" stroke-width="0.2614" stroke="#4D4D4D" fill="none" clip-rule="evenodd" fill-rule="evenodd"/>
<path id="svg_182" d="m51.578,131.594c17.054,2.941 37.854,1.458 40.991,0.609" stroke-width="0.2614" stroke="#4D4D4D" fill="none" clip-rule="evenodd" fill-rule="evenodd"/>
<path id="svg_183" d="m51.098,119.135c1.242,0.392 14.266,1.22 16.358,1.285c2.09,0.066 25.549,-0.653 27.509,-1.176" stroke-width="0.5227" stroke="#1A1A1A" fill="none" clip-rule="evenodd" fill-rule="evenodd"/>
<path id="svg_184" d="m49.573,122.794c17.055,2.94 43.541,1.285 45.501,0.763" stroke-width="0.5227" stroke="#1A1A1A" fill="none" clip-rule="evenodd" fill-rule="evenodd"/>
<path id="svg_185" d="m45.784,113.82c0,0 -1.08,1.119 2.003,1.786c3.223,0.698 19.539,1.266 21.215,1.307c1.786,0.043 20.822,0.087 22.478,-0.044s4.748,0.219 5.271,-1.524" stroke-width="0.1307" stroke="#808080" fill="none" clip-rule="evenodd" fill-rule="evenodd"/>
<path id="svg_186" d="m44.923,133.473c0.457,0.685 0.278,1.404 2.864,1.996c3.214,0.739 19.539,1.267 21.215,1.308c1.786,0.045 20.822,0.087 22.478,-0.042c1.656,-0.132 4.748,0.218 5.271,-1.525" stroke-width="0.1307" stroke="#808080" fill="none" clip-rule="evenodd" fill-rule="evenodd"/>
<rect id="svg_187" height="9.933" width="8.887" fill="#ff0000" clip-rule="evenodd" fill-rule="evenodd" y="16.023" x="114.088"/>
<rect id="svg_188" height="9.932" width="8.887" fill="#ff0000" clip-rule="evenodd" fill-rule="evenodd" y="118.22" x="114.088"/>
<path id="svg_189" d="m199.252,21.862l-0.958,101.063c0,0 10.804,0.784 13.378,-1.004c4.068,-2.83 10.934,-13.508 14.924,-18.051c3.868,-4.404 14.256,-13.028 19.746,-14.14c0.32,-8.933 0.401,-34.568 0.401,-34.568s-10.519,-5.259 -16.214,-10.257c-5.696,-4.997 -13.982,-19.08 -18.557,-21.302c-2.812,-1.365 -12.72,-1.741 -12.72,-1.741z" stroke-width="0.5227" stroke="#5A4A42" fill="#9C8E89"/>
<path id="svg_190" d="m208.754,32.735l8.358,3.327c0,0 0.697,10.891 16.204,11.413c3.648,1.643 11.414,7.145 13.591,8.452c2.179,1.306 -10.008,-0.686 -12.459,-0.959c-5.487,-0.61 -25.526,-2.176 -25.526,-2.176l-0.168,-20.057z" fill="#74655F" clip-rule="evenodd" fill-rule="evenodd"/>
<path id="svg_191" d="m208.754,112.692l9.098,-2.575c0,0 -0.87,-11.892 14.638,-12.415c3.397,-2.613 5.228,-4.509 11.566,-7.646c2.275,-1.126 -7.156,0.13 -9.607,0.402c-5.487,0.609 -25.526,2.178 -25.526,2.178l-0.169,20.056z" fill="#74655F" clip-rule="evenodd" fill-rule="evenodd"/>
<polyline id="svg_192" points="208.505,37.993 216.714,38.24 219.356,46.382    222.623,47.357 225.041,54.844 224.975,93.51 222.361,99.759 219.878,99.955 217.461,107.701 210.209,107.984  " fill="#14100F" clip-rule="evenodd" fill-rule="evenodd"/>
<path id="svg_193" d="m55.411,39.711c2.064,-2.13 7.318,-4.509 13.068,-4.77c5.75,-0.261 16.793,-0.653 16.793,-0.653s4.179,-12.636 7.724,-14.865c40.303,2.056 95.842,-2.287 97.507,-2.473c5.308,-0.589 7.241,1.774 7.616,2.503c0.87,1.7 1.045,1.875 2.308,5.621c0.422,1.251 0.396,3.167 1.677,3.462c9.954,2.299 8.298,15.29 8.298,15.29c0.066,2.876 5.78,5.769 8.208,6.75c2.379,0.96 4.611,1.941 7.461,2.473c12.423,2.314 49.365,5.206 80.842,6.853c26.172,1.368 48.61,1.483 49.5,1.554c11.007,0.862 12.852,1.282 16.236,2.562c2.417,0.915 2.939,1.306 3.91,2.877c0.545,0.88 1.708,5.878 0.996,8.406c-0.565,2.008 -3.666,3.712 -4.976,4.697c-3.189,2.399 -56.387,3.688 -63.182,4.667c-3.349,0.484 -77.536,6.306 -79.609,6.578c-2.484,0.327 -10.122,2.063 -15.138,5.577c-3.267,2.286 -2.679,6.077 -4.117,8.821c-0.305,4.901 -0.79,7.03 -2.352,8.625c-1.041,1.062 -4.02,1.438 -5.75,2.94c-1.34,3.497 -4.371,7.908 -5.619,8.691c-3.856,2.418 -7.319,1.569 -15.944,1.045c-8.625,-0.521 -35.285,-2.09 -42.342,-2.351c-7.057,-0.261 -26.921,-0.261 -28.489,0c-1.569,0.261 -11.078,1.176 -14.311,1.176c-0.588,0 -7.056,-12.874 -8.494,-14.376c-19.146,-0.784 -23.926,-1.917 -28.62,-4.051c-1.438,-0.654 -0.719,-2.287 -0.981,-3.202c-0.432,-1.514 6.536,-15.748 6.47,-19.081c-0.053,-2.67 0.391,-31.205 0.327,-31.299c-0.735,-1.075 -7.71,-11.957 -7.71,-11.957l-1.307,-2.09z" fill="#ff0000" clip-rule="evenodd" fill-rule="evenodd"/>
<path id="svg_194" d="m188.645,51.526c0.406,-2.592 -22.294,-4.765 -23.087,-6.882c-0.523,-1.395 3.638,-14.447 7.754,-16.38c4.117,-1.934 8.539,-5.228 10.629,-5.228c2.091,0 7.405,-1.132 9.322,1.481c1.917,2.614 2.701,5.489 3.921,8.975c1.219,3.483 4.356,6.446 5.75,8.363c1.393,1.917 4.431,5.737 6.484,7.138c2.053,1.4 0.484,1.052 4.84,3.84c4.356,2.787 6.273,4.181 9.41,5.575c3.137,1.394 3.933,3.689 12.116,3.689c8.336,0 13.39,0.145 22.559,0.145c9.475,0 40.928,1.22 46.001,1.22c5.067,0 21.403,0.567 21.585,9.452c0.175,8.451 -15.251,9.889 -21.585,9.889c-6.032,0 -42.937,-0.305 -49.769,-0.305c-6.534,0 -12.197,0.522 -16.467,0.522c-4.369,0 -7.472,2.743 -11.304,3.79c-3.832,1.045 -9.846,4.618 -12.22,6.185c-2.373,1.569 -6.861,5.838 -11.913,11.152c-4.249,4.469 -6.709,12.72 -12.458,15.726c-5.739,2.999 -13.941,3.311 -19.342,-2.091c-7.164,-7.163 -7.057,-13.721 -5.359,-17.512c4.008,-0.785 27.852,-4.684 27.227,-7.186c-0.697,-2.789 -35.415,3.658 -36.091,-1.002c-0.761,-5.254 -2.243,-36.985 2.025,-39.075c2.896,-1.416 29.275,2.963 29.972,-1.481z" fill="#ff0000" clip-rule="evenodd" fill-rule="evenodd"/>
<path id="svg_195" d="m226.314,80.853c0,3.712 -2.516,5.851 -6.501,6.961l-7.123,1.307l-0.522,-1.545l-40.067,0c-3.62,0 -6.555,-3.011 -6.555,-6.723l0,-15.828c0,-3.712 2.935,-6.723 6.555,-6.723c0,0 39.119,-0.269 39.806,-0.252c0.392,-0.246 0.422,-1.608 0.833,-1.569c0.975,0.095 0.812,0.031 7.105,1.314c3.708,0.719 6.698,3.75 6.469,7.229l0,15.829z" clip-rule="evenodd" fill-rule="evenodd"/>
<path id="svg_196" d="m170.806,64.64c4.574,3.202 15.234,4.911 18.623,5.489c1.536,0.261 2.353,1.273 2.418,1.862c0.065,0.588 0.195,0.916 -0.588,1.602c-1.104,0.965 -12.611,2.679 -13.853,3.332c-1.243,0.653 -5.527,2.493 -6.031,3.044c-0.504,0.55 -0.831,2.445 -0.504,3.033c0.327,0.588 -0.32,1.192 1.997,0.923c2.315,-0.27 6.432,-1.119 7.738,-1.445c1.308,-0.327 23.354,-4.489 23.354,-4.489s0.04,-0.412 -0.09,0.243c-0.131,0.652 0.498,0.495 0.836,1.488c0.339,0.994 0.927,2.106 0.993,2.627c0.066,0.524 0.522,1.765 0.522,1.765l5.163,0.458c0,0 0.77,0.342 0.288,-0.645c-0.484,-0.988 -0.027,0.188 -0.745,-1.25c-0.72,-1.438 -0.589,-2.156 -0.98,-3.006c-0.392,-0.85 -0.588,-1.959 -0.784,-2.156c-0.196,-0.196 -0.476,-1.5 -0.476,-1.5s-0.57,-0.265 0.28,0.194c0.849,0.457 1.568,1.045 2.156,0.849c0.588,-0.195 1.242,0.13 1.372,-0.458c0.13,-0.588 0.196,-0.851 0.196,-1.634c0,-0.783 -0.066,-1.175 -0.066,-1.175l-1.568,0l-0.131,-2.721c0,0 1.112,0.042 1.503,-0.154c0.393,-0.197 0.486,-2.319 0.486,-2.319l-2.488,-0.742l0.996,-6.923c0,0 1.202,-0.08 -0.366,-0.275c-1.568,-0.195 -5.226,0.196 -5.226,0.196s0.196,2.156 0.064,2.811c-0.13,0.654 -0.391,2.156 -0.718,2.483c-0.327,0.327 -11.057,-1.245 -12.161,-1.504c-1.104,-0.261 -13.519,-3.07 -13.976,-3.07c-0.458,0 -7.45,-1.11 -7.45,-1.11l-0.712,3.933" fill="#ff0000" clip-rule="evenodd" fill-rule="evenodd"/>
<rect id="svg_197" height="3.135" width="13.133" fill="#9C8E89" clip-rule="evenodd" fill-rule="evenodd" transform="matrix(0.9765,0.2156,-0.2156,0.9765,18.5848,-38.1875) " y="64.509" x="177.732"/>
<rect id="svg_198" height="3.136" width="13.133" fill="#9C8E89" clip-rule="evenodd" fill-rule="evenodd" transform="matrix(0.9765,-0.2155,0.2155,0.9765,-12.5594,41.6784) " y="76.858" x="178.255"/>
<rect id="svg_199" height="5.099" width="1.058" fill="#009445" clip-rule="evenodd" fill-rule="evenodd" transform="matrix(-0.959,-0.2835,0.2835,-0.959,360.8333,187.4202) " y="65.052" x="193.449"/>
<rect id="svg_200" height="5.206" width="1.04" fill="#009445" clip-rule="evenodd" fill-rule="evenodd" transform="matrix(-0.9591,0.2832,-0.2832,-0.9591,401.7684,95.0927) " y="73.984" x="193.491"/>
<polygon id="svg_201" points="196.747,71.248 199.034,72.121 196.813,72.709  " clip-rule="evenodd" fill-rule="evenodd"/>
<path id="svg_202" d="m196.943,64.313c0.339,0.041 0.831,0.838 0.871,1.567c0.087,1.568 -0.81,3.531 -2.897,5.621c-0.305,0.305 -0.915,0.631 -1.699,0.064c-0.604,-0.436 -0.98,-1.002 -1.024,-1.546c0.349,-0.24 0.363,0.15 0.915,0.24c0.545,0.086 1.372,-0.307 2.222,-1.286c0.85,-0.979 0.653,-0.697 0.718,-1.742c0.066,-1.045 -0.022,-1.807 -0.022,-1.807s-1.917,-0.328 -2.537,-0.874c0.491,-0.346 2.594,-0.341 3.453,-0.237z" fill="#B3B3B3" clip-rule="evenodd" fill-rule="evenodd"/>
<path id="svg_203" d="m197.095,79.916c0.339,-0.041 0.832,-0.838 0.871,-1.568c0.087,-1.569 -0.809,-3.53 -2.895,-5.62c-0.306,-0.305 -0.917,-0.632 -1.701,-0.065c-0.604,0.436 -0.98,1 -1.023,1.547c0.35,0.238 0.363,-0.153 0.915,-0.24c0.544,-0.088 1.373,0.305 2.223,1.285c0.849,0.98 0.652,0.697 0.718,1.742c0.065,1.045 -0.022,1.807 -0.022,1.807s-1.916,0.327 -2.537,0.873c0.49,0.348 2.592,0.342 3.451,0.239z" fill="#B3B3B3" clip-rule="evenodd" fill-rule="evenodd"/>
<rect id="svg_204" height="6.121" width="0.719" fill="#333333" clip-rule="evenodd" fill-rule="evenodd" y="69.572" x="217.352"/>
<polygon id="svg_205" points="215.98,62.636 213.911,62.766 213.889,64.465    214.407,65.132 214.455,80.518 213.758,81.302 213.735,82.674 216.154,82.739 216.219,80.038 217.417,80.409 217.392,65.627    216.154,65.946  " fill="#4D4D4D" clip-rule="evenodd" fill-rule="evenodd"/>
<path id="svg_206" d="m216.219,67.841c-0.369,0.292 -1.045,0.98 -1.11,1.567c-0.065,0.589 -0.29,1.632 -0.283,2.679c0.009,1.21 -0.042,1.809 0.022,2.527c0.066,0.719 0.052,1.817 0.392,2.375c0.544,0.892 0.609,0.827 1.067,1.415c0.458,0.588 2.003,1.438 3.114,1.134c0.315,-0.088 0.545,-0.588 0.545,-0.588s0.5,-0.785 -0.545,-0.718c-1.045,0.064 -1.752,-0.144 -2.276,-0.738c-0.467,-0.525 -0.824,-3.917 -0.772,-4.774c0.062,-1.025 -0.173,-3.114 0.632,-3.855c0.204,-0.188 0.806,-0.805 1.306,-0.631c0.394,0.137 1.093,0.609 1.437,0.458c0.162,-0.071 0.445,-0.427 0.381,-0.592c-0.141,-0.366 -0.939,-1.155 -1.339,-1.195c-0.676,-0.065 -1.931,0.429 -2.571,0.936z" fill="#B3B3B3" clip-rule="evenodd" fill-rule="evenodd"/>
<rect id="svg_207" height="1.96" width="1.198" fill="#006838" clip-rule="evenodd" fill-rule="evenodd" y="71.522" x="222.819"/>
<rect id="svg_208" height="4.334" width="4.727" fill="#333333" clip-rule="evenodd" fill-rule="evenodd" y="70.335" x="218.179"/>
<rect id="svg_209" height="4.748" width="2.634" fill="#333333" clip-rule="evenodd" fill-rule="evenodd" y="70.128" x="223.952"/>
<path id="svg_210" d="m264.247,57.321c0.512,-0.029 -0.066,-1.093 0.348,-1.133c2.875,1.568 3.1,-1.242 2.353,-1.568c-3.179,-1.388 -7.578,-3.557 -13.157,-5.489c-12.698,-4.401 -15.917,-10.894 -17.738,-11.886c-7.441,-4.058 -14.498,-3.405 -14.498,-3.405s5.815,9.409 12.808,14.114c3.734,2.512 9.956,6.551 13.33,7.841c4.443,1.7 11.586,1.352 16.554,1.526z" stroke-width="0.5227" stroke="#1A1A1A" fill="#F2F2F2" clip-rule="evenodd" fill-rule="evenodd"/>
<path id="svg_211" d="m236.279,37.783c3.18,4.792 4.836,6.273 10.389,9.868c1.252,0.81 10.186,3.936 12.089,4.835c2.353,1.11 3.986,2.613 4.966,2.744c1.995,0.266 2.57,-0.74 1.001,-1.395c-1.567,-0.653 -6.012,-2.831 -9.147,-4.006c-3.137,-1.177 -3.79,-1.569 -6.97,-2.833c-3.26,-1.294 -6.94,-3.923 -8.277,-5.358c-1.219,-1.306 -4.051,-3.855 -4.051,-3.855z" fill="#333333" clip-rule="evenodd" fill-rule="evenodd"/>
<path id="svg_212" d="m227.981,34.385c8.385,4.291 10.781,9.823 11.958,10.738c1.176,0.916 9.409,5.097 11.499,6.013c2.092,0.915 10.836,3.878 11.764,4.094c1.959,0.458 1.894,-0.131 0.325,-0.784c-1.567,-0.653 -11.479,-4.617 -14.571,-5.88c-3.102,-1.267 -4.574,-2.484 -7.318,-4.574c-2.745,-2.091 -4.408,-5.765 -6.077,-6.797c-1.719,-1.063 -7.58,-2.81 -7.58,-2.81z" fill="#9C8E89" clip-rule="evenodd" fill-rule="evenodd"/>
<path id="svg_213" d="m226.281,39.776c3.693,3.496 18.974,10.438 22.021,11.533c5.576,2.004 10.52,3.137 14.703,3.921c0.896,0.168 2.164,-1.135 2.744,-1.045c2.091,0.327 1.554,3.145 -0.653,2.026c-1.503,-0.763 -0.412,0.858 -0.895,0.848c-3.266,-0.065 -12.942,0.586 -16.52,-1.274c-12.251,-6.37 -18.916,-11.729 -21.4,-16.009z" fill="#14100F" clip-rule="evenodd" fill-rule="evenodd"/>
<path id="svg_214" d="m263.376,88.516c0.514,0.029 -0.067,1.092 0.348,1.133c2.876,-1.568 3.1,1.242 2.353,1.568c-3.179,1.387 -7.575,3.556 -13.154,5.489c-12.7,4.401 -15.919,10.894 -17.741,11.887c-7.44,4.057 -14.495,3.404 -14.495,3.404s5.814,-9.41 12.806,-14.113c3.734,-2.514 9.957,-6.551 13.331,-7.841c4.442,-1.702 11.586,-1.352 16.552,-1.527z" stroke-width="0.5227" stroke="#1A1A1A" fill="#F2F2F2" clip-rule="evenodd" fill-rule="evenodd"/>
<path id="svg_215" d="m225.596,105.87c3.69,-3.496 18.973,-10.438 22.021,-11.533c5.576,-2.003 10.52,-3.136 14.701,-3.92c0.898,-0.168 2.164,1.135 2.746,1.045c2.091,-0.326 1.554,-3.144 -0.653,-2.026c-1.504,0.764 -0.411,-0.857 -0.894,-0.849c-3.266,0.066 -12.287,0.943 -16.52,1.274c-6.666,0.522 -18.917,11.729 -21.401,16.009z" fill="#14100F" clip-rule="evenodd" fill-rule="evenodd"/>
<path id="svg_216" d="m119.827,63.211c9.649,-1.251 14.055,-1.221 27.574,-1.111c8.138,0.065 7.026,0.049 8.72,0.05c-0.589,1.517 -1.053,1.458 -1.532,10.338c-0.458,8.484 1.091,9.827 1.745,10.8c-1.144,0.823 -24.275,1.118 -32.194,0.048c-11.587,-2.198 -52.557,-10.691 -52.557,-10.691s46.419,-9.199 48.244,-9.434z" fill="#CBBFBB" clip-rule="evenodd" fill-rule="evenodd"/>
<path id="svg_217" d="m138.293,27.224c-0.672,0.733 -1.787,1.026 -2.985,1.236c0.714,-0.691 1.828,-0.984 2.985,-1.236z" fill="#AA1F23" clip-rule="evenodd" fill-rule="evenodd"/>
<path id="svg_218" d="m127.349,36.371c-0.749,0.25 -0.44,-0.55 -0.498,-0.988c0.437,0.059 0.567,0.425 0.498,0.988z" fill="#AA1F23" clip-rule="evenodd" fill-rule="evenodd"/>
<path id="svg_219" d="m208.437,47.25c0.726,-0.364 0.726,1.105 0,0.742c0,-0.246 0,-0.495 0,-0.742z" fill="#AA1F23" clip-rule="evenodd" fill-rule="evenodd"/>
<path id="svg_220" d="m137.795,61.591c0,-0.083 0,-0.165 0,-0.248c0.248,0 0.498,0 0.747,0c0.248,0 0.497,0 0.746,0c-0.032,0.547 -1.055,0.106 -1.493,0.248z" fill="#9C8E89" clip-rule="evenodd" fill-rule="evenodd"/>
<path id="svg_221" d="m138.043,62.086c0.588,-0.569 2.233,-0.089 3.234,-0.248c0.581,0 1.161,0 1.741,0c0,0.083 0,0.166 0,0.248c-0.58,0 -1.16,0 -1.741,0c-1.077,0 -2.156,0 -3.234,0z" fill="#E2726D" clip-rule="evenodd" fill-rule="evenodd"/>
<path id="svg_222" d="m329.574,62.333c6.619,-0.652 11.94,-0.078 19.402,-0.247c1.658,0 3.317,0 4.975,0c-0.05,0.534 -3.197,0.113 -4.477,0.247c-3.482,0 -6.966,0 -10.447,0c-0.166,0 -0.332,0 -0.498,0c-0.249,0 -0.498,0 -0.746,0c-0.581,0 -1.161,0 -1.742,0c-0.25,0 -0.497,0 -0.746,0c-0.332,0 -0.663,0 -0.997,0c-0.497,0 -0.993,0 -1.49,0c-1.078,0 -2.157,0 -3.234,0z" fill="#8CC63F" clip-rule="evenodd" fill-rule="evenodd"/>
<path id="svg_223" d="m133.815,62.581c0.032,-0.547 1.056,-0.105 1.492,-0.248c0,0.083 0,0.166 0,0.248c-0.497,0 -0.995,0 -1.492,0z" fill="#7C1416" clip-rule="evenodd" fill-rule="evenodd"/>
<path id="svg_224" d="m155.953,62.333c0.437,0.313 1.5,-0.25 2.238,0.248c-0.344,0.563 -1.731,0.091 -2.487,0.247c0,-0.249 0.202,-0.295 0.249,-0.495z" fill="#E2726D" clip-rule="evenodd" fill-rule="evenodd"/>
<path id="svg_225" d="m160.431,64.063c-0.083,0 -0.166,0 -0.25,0c-0.055,-0.315 -0.742,-0.324 -0.746,0c-0.172,-0.193 -1.388,-0.551 -1.492,0c-0.976,0.208 -1.495,1.253 -2.737,0.495c-0.01,-0.34 0.118,-0.543 0.249,-0.742c1.09,0.178 4.536,-0.949 5.721,0.248c-0.294,-0.036 -0.563,-0.441 -0.745,-0.001z" fill="#E2726D" clip-rule="evenodd" fill-rule="evenodd"/>
<path id="svg_226" d="m157.943,64.063c0.104,-0.551 1.32,-0.193 1.492,0c-0.04,0.287 0.056,0.439 0.248,0.495c-0.372,0.53 -0.607,-0.177 -1.243,0.247c0.065,-0.651 0.513,-0.811 -0.497,-0.742z" fill="#9C8E89" clip-rule="evenodd" fill-rule="evenodd"/>
<path id="svg_227" d="m159.436,64.063c0.003,-0.324 0.691,-0.315 0.746,0c-0.055,0.192 -0.006,0.487 -0.248,0.495c-0.083,0 -0.165,0 -0.25,0c-0.193,-0.055 -0.288,-0.208 -0.248,-0.495z" fill="#74655F" clip-rule="evenodd" fill-rule="evenodd"/>
<path id="svg_228" d="m145.755,65.793c0.249,0 0.296,0.201 0.497,0.248c0,0.082 0,0.165 0,0.247s0,0.166 0,0.248c0,0.412 0,0.823 0,1.235c-0.083,0 -0.165,0 -0.249,0c0.033,-0.609 0.038,-1.191 -0.249,-1.483c0.001,-0.164 0.001,-0.329 0.001,-0.495z" fill="#7C1416" clip-rule="evenodd" fill-rule="evenodd"/>
<path id="svg_229" d="m146.252,66.537c0,-0.082 0,-0.166 0,-0.248c0.914,0.081 2.203,-0.211 2.737,0.248c-0.608,0.666 -1.623,-0.353 -2.737,0z" fill="#AA1F23" clip-rule="evenodd" fill-rule="evenodd"/>
<path id="svg_230" d="m68.396,66.537c0.075,0.652 -0.519,0.637 -0.995,0.741c0.217,-0.362 0.372,-0.785 0.995,-0.741z" fill="none" clip-rule="evenodd" fill-rule="evenodd"/>
<path id="svg_231" d="m128.841,70.739c0.718,-0.604 1.389,-1.255 2.238,-1.73c0.029,0.302 0.074,0.586 0.498,0.495c0,0.166 0,0.33 0,0.494c-0.279,0.025 -0.388,-0.359 -0.498,0c-0.364,0.544 -0.657,1.158 -1.74,0.989c-0.251,0.744 0.554,0.438 0.994,0.495c0,0.247 -0.201,0.293 -0.248,0.493c-1.373,0.038 -2.058,0.758 -3.483,0.743c-0.082,0 -0.165,0 -0.248,0c0.078,-0.582 1.18,-0.147 0.996,-0.989c0.807,-0.021 1.338,-0.317 1.491,-0.99z" fill="#E2726D" clip-rule="evenodd" fill-rule="evenodd"/>
<path id="svg_232" d="m131.079,69.998c0.369,0.046 0.229,0.597 0.249,0.989c-0.367,0.128 -0.626,0.366 -0.995,0.495c-0.44,-0.058 -1.245,0.249 -0.994,-0.495c1.082,0.169 1.375,-0.445 1.74,-0.989z" fill="#CBBFBB" clip-rule="evenodd" fill-rule="evenodd"/>
<path id="svg_233" d="m128.841,70.739c-0.153,0.673 -0.684,0.97 -1.492,0.989c0.525,-0.301 0.721,-0.93 1.492,-0.989z" fill="#9C8E89" clip-rule="evenodd" fill-rule="evenodd"/>
<path id="svg_234" d="m149.734,70.986c0.167,0 0.333,0 0.498,0c-0.024,0.389 0.033,0.858 -0.498,0.742c0,-0.247 0,-0.495 0,-0.742z" fill="#AA1F23" clip-rule="evenodd" fill-rule="evenodd"/>
<path id="svg_235" d="m152.471,71.481c0.413,0.751 0.413,3.205 0,3.955c0,-1.318 0,-2.637 0,-3.955z" fill="#2E2C28" clip-rule="evenodd" fill-rule="evenodd"/>
<path id="svg_236" d="m149.486,72.717c-0.014,-0.15 -0.038,-0.292 -0.249,-0.248c0.25,-0.513 1.099,-0.677 0.995,0.248c-0.249,0 -0.498,0 -0.746,0z" fill="#AA1F23" clip-rule="evenodd" fill-rule="evenodd"/>
<path id="svg_237" d="m119.388,77.168c0.401,-0.07 0.428,0.232 0.746,0.248c-0.163,0.331 -0.531,0.459 -0.994,0.493c0.131,-0.199 0.259,-0.401 0.248,-0.741z" fill="#CBBFBB" clip-rule="evenodd" fill-rule="evenodd"/>
<path id="svg_238" d="m100.981,77.909c0,-0.083 0,-0.165 0,-0.247c1,-0.17 1.42,0.237 2.239,0.247c0.082,0 0.165,0 0.249,0c-0.618,0.758 -1.51,-0.295 -2.488,0z" fill="#CBBFBB" clip-rule="evenodd" fill-rule="evenodd"/>
<path id="svg_239" d="m124.362,78.404c0.553,-0.137 0.355,0.472 0.746,0.494c-0.1,0.617 -0.963,0.015 -0.746,-0.494z" fill="#CBBFBB" clip-rule="evenodd" fill-rule="evenodd"/>
<path id="svg_240" d="m68.895,79.393c0.633,0.914 -0.629,0.205 -0.996,0c0.183,-0.44 0.452,-0.035 0.746,0c0.083,0 0.166,0 0.25,0z" fill="#7C1416" clip-rule="evenodd" fill-rule="evenodd"/>
<path id="svg_241" d="m70.137,79.393c0,-0.082 0,-0.164 0,-0.247c1.017,-0.074 -0.042,0.343 0.25,0.99c-0.679,-0.023 -0.501,0.411 -0.995,0c0.04,-0.291 0.453,-0.209 0.745,-0.248c0,-0.164 0,-0.33 0,-0.495z" fill="#7C1416" clip-rule="evenodd" fill-rule="evenodd"/>
<path id="svg_242" d="m127.099,80.136c-0.614,0.032 -1.199,0.036 -1.492,-0.248c0.622,-0.049 3.456,-1.141 1.492,0.248z" fill="#CBBFBB" clip-rule="evenodd" fill-rule="evenodd"/>
<path id="svg_243" d="m155.456,81.124c0,-0.165 0,-0.33 0,-0.495c0.056,-0.467 -0.281,-0.545 -0.249,-0.988c0.9,-0.235 0.347,0.974 0.498,1.483c-0.084,0 -0.167,0 -0.249,0z" fill="#CBBFBB" clip-rule="evenodd" fill-rule="evenodd"/>
<path id="svg_244" d="m158.689,80.629c0,0.248 0,0.495 0,0.743c-0.433,0.018 -0.774,-0.056 -0.996,-0.248c-0.201,-0.047 -0.247,-0.248 -0.497,-0.247c0.09,-0.352 1.269,-0.845 1.493,-0.248z" fill="#CBBFBB" clip-rule="evenodd" fill-rule="evenodd"/>
<path id="svg_245" d="m155.953,82.854c0,-0.081 0,-0.164 0,-0.247c0.842,0.069 1.429,0.394 2.488,0.247c-0.428,0.482 -1.289,0.534 -2.239,0.495c-0.014,-0.15 -0.038,-0.292 -0.249,-0.247c0,-0.083 0,-0.164 0,-0.248z" fill="#E2726D" clip-rule="evenodd" fill-rule="evenodd"/>
<path id="svg_246" d="m291.765,103.87c-4.88,-4.461 -7.437,-11.231 -11.44,-16.565c2.495,-0.238 4.734,-0.732 7.461,-0.742c-0.594,2.336 1.875,3.282 3.233,4.451c-0.071,4.606 0.983,8.087 0.746,12.856z" fill="none" clip-rule="evenodd" fill-rule="evenodd"/>
<path id="svg_247" d="m146.252,91.508c0.29,0.208 0.667,0.326 1.245,0.247c0.043,0.404 -1.629,0.499 -1.245,-0.247z" fill="#AA1F23" clip-rule="evenodd" fill-rule="evenodd"/>
<path id="svg_248" d="m153.963,93.734c0.104,-0.55 1.319,-0.194 1.493,0c-0.307,0.751 -0.856,-0.268 -1.493,0z" fill="#AA1F23" clip-rule="evenodd" fill-rule="evenodd"/>
<path id="svg_249" d="m208.437,110.547c0.25,-0.001 0.296,0.2 0.498,0.246c0.12,0.78 -0.763,0.561 -0.498,1.484c-0.719,-0.108 -1.134,-0.521 -1.243,-1.236c0.617,0.036 1.207,0.046 1.243,-0.494z" fill="#AA1F23" clip-rule="evenodd" fill-rule="evenodd"/>
<path id="svg_250" d="m68.895,65.547c-0.083,0 -0.167,0 -0.25,0c-1.235,0.757 0.495,-1.297 0.996,-0.248c-0.294,0.038 -0.706,-0.042 -0.746,0.248z" fill="#7C1416" clip-rule="evenodd" fill-rule="evenodd"/>
<path id="svg_251" d="m67.401,67.525c-1.069,-0.341 0.321,-1.142 0.746,-1.483c-0.167,0.574 -0.826,0.662 -0.994,1.236c0.211,-0.047 0.234,0.097 0.248,0.247z" fill="#E2726D" clip-rule="evenodd" fill-rule="evenodd"/>
<path id="svg_252" d="m76.107,41.069c-0.744,0.368 -1.42,1.296 -0.497,1.979c-0.536,-0.209 -0.88,-0.609 -0.747,-1.484c0.474,-0.106 0.627,-0.533 1.244,-0.495z" fill="#2E2C28" clip-rule="evenodd" fill-rule="evenodd"/>
<path id="svg_253" d="m68.396,83.597c0.37,0.457 0.476,1.174 0.498,1.977c-0.369,-0.457 -0.477,-1.175 -0.498,-1.977z" fill="#2E2C28" clip-rule="evenodd" fill-rule="evenodd"/>
<path id="svg_254" d="m235.799,48.981c1.013,0.725 2.175,1.299 2.983,2.226c-1.05,-0.685 -2.213,-1.261 -2.983,-2.226z" fill="#474039" clip-rule="evenodd" fill-rule="evenodd"/>
<path id="svg_255" d="m239.778,51.701c0.625,0.368 1.371,0.616 1.742,1.236c-0.617,-0.375 -1.48,-0.507 -1.742,-1.236z" fill="#474039" clip-rule="evenodd" fill-rule="evenodd"/>
<path id="svg_256" d="m111.467,51.616c-1.848,0.333 -5.507,1.413 -6.468,0.989c1.783,-0.372 3.624,-0.684 5.223,-1.236c0.366,0.002 2.036,-0.094 1.245,0.247z" fill="#CBBFBB" clip-rule="evenodd" fill-rule="evenodd"/>
<path id="svg_257" d="m141.278,61.838c-0.004,-0.408 -0.69,-0.139 -0.747,-0.495c1.234,-0.046 2.68,0.075 2.985,0.248c-0.25,0 -0.297,0.201 -0.498,0.247c-0.58,0 -1.159,0 -1.74,0z" fill="none" clip-rule="evenodd" fill-rule="evenodd"/>
<path id="svg_258" d="m131.825,61.838c0.464,0.034 0.833,0.163 0.995,0.495c-0.394,0.021 -0.949,-0.119 -0.995,0.248c-0.2,0.13 -0.403,0.257 -0.746,0.247c-0.166,0 -0.331,0 -0.497,0c0.319,-0.426 1.184,-0.307 1.243,-0.99z" fill="#9C8E89" clip-rule="evenodd" fill-rule="evenodd"/>
<path id="svg_259" d="m128.841,69.475c-2.485,2.052 -3.74,3.603 -7.463,2.967c3.242,-0.421 4.596,-1.68 7.463,-2.967z" fill="none" clip-rule="evenodd" fill-rule="evenodd"/>
<path id="svg_260" d="m128.343,75.189c0.08,0.581 0.771,0.554 0.996,0.989c-0.471,-0.049 -1.649,-0.637 -0.996,-0.989z" fill="#9C8E89" clip-rule="evenodd" fill-rule="evenodd"/>
<path id="svg_261" d="m154.709,79.146c0.057,-0.84 6.839,1.231 7.213,-0.741c0.305,0.933 0.833,1.644 0.746,2.967c-0.475,-0.106 -0.449,-0.707 -1.244,-0.495c0.131,0.631 0.331,0.865 -0.249,1.236c-2.043,0.333 -3.914,-0.659 -5.473,0c0.056,-0.468 -0.281,-0.546 -0.249,-0.989c0.083,0 0.166,0 0.249,0c-0.15,-0.51 0.402,-1.718 -0.498,-1.483c-0.032,0.443 0.305,0.521 0.249,0.988c-0.469,-0.027 -0.173,-0.817 -0.746,-0.741c-0.972,-0.626 -2.281,-0.501 -3.233,0c0.442,-0.796 1.667,-0.815 2.984,-0.742c0.084,0 0.169,0 0.251,0zm2.985,1.978c0.028,0.631 0.833,0.491 1.493,0.494c-0.207,-0.793 -0.212,-0.513 0.249,-0.989c-0.249,0 -0.497,0 -0.746,0c-0.224,-0.597 -1.403,-0.104 -1.492,0.248c0.249,-0.001 0.295,0.2 0.496,0.247zm2.737,0c0.25,-0.001 0.296,0.201 0.498,0.248c0.356,-0.772 -1.85,-0.772 -1.493,0c0.037,0.54 0.627,0.531 1.244,0.494c0.01,-0.342 -0.118,-0.544 -0.249,-0.742z" fill="#E2726D" clip-rule="evenodd" fill-rule="evenodd"/>
<path id="svg_262" d="m153.322,71.5c-0.707,1.799 0.919,5.89 -1.597,6.904c-0.593,-0.401 -0.841,-1.141 -1.245,-1.731c0,-0.164 0,-0.33 0,-0.494c0.202,0.047 0.249,0.248 0.499,0.248c-0.032,0.443 0.305,0.52 0.25,0.989c-0.046,0.208 0.097,0.232 0.248,0.246c0.779,0.116 0.7,-0.622 0.995,-0.989c0.466,-0.47 0.028,-0.62 0,-1.236c0.413,-0.75 0.413,-3.204 0,-3.955c-0.083,-0.989 0.319,-2.461 -0.746,-2.473c-1.723,0.678 -1.148,3.638 -1.245,5.934c0.023,0.352 0.042,0.7 -0.248,0.741c0,-0.082 0,-0.164 0,-0.247c0,-0.494 0,-0.988 0,-1.483c-0.222,0.193 -0.562,0.266 -0.995,0.248c-0.116,0.527 0.355,0.471 0.746,0.495c-0.198,1.779 -3.109,0.864 -2.984,2.966c0.021,0.351 0.041,0.701 -0.249,0.742c-0.362,-0.111 0.025,-0.218 0,-0.495c-0.077,-0.9 0.04,-1.608 0.249,-2.226c0.547,-1.021 1.767,-1.376 2.736,-1.977c0.504,-0.793 -0.984,-0.774 -0.249,-0.99c0.249,0 0.497,0 0.747,0c0.104,-0.924 -0.746,-0.76 -0.995,-0.248c-0.961,-0.032 -0.982,-1.002 -1.741,-1.236c-0.9,0.069 -0.569,-1.083 -0.995,-1.484c-0.106,-0.471 -0.711,-0.446 -0.498,-1.236c-0.041,-0.287 0.055,-0.439 0.249,-0.494c0,0.248 0,0.494 0,0.742c0.283,1.533 2.512,1.129 3.482,1.978c0,0.083 0,0.166 0,0.248c0,0.247 0,0.495 0,0.742c0.531,0.116 0.474,-0.353 0.498,-0.742c-0.033,-0.443 0.305,-0.521 0.248,-0.989c0.426,-0.731 0.369,-1.941 1.493,-1.979c1.107,0.548 0.812,2.408 1.607,3.266" fill="#7C1416" clip-rule="evenodd" fill-rule="evenodd"/>
<path id="svg_263" d="m148.739,65.547c0.057,0.808 0.74,0.309 1.493,0.246c0.082,0 0.165,0 0.248,0c0,0.084 0,0.166 0,0.248c-0.292,0.038 -0.706,-0.042 -0.746,0.247c1.021,-0.113 -0.1,0.528 0.249,1.236c-1.148,0.398 -2.272,1.948 -3.731,1.236c0,-0.248 0,-0.494 0,-0.742c0,-0.082 0,-0.164 0,-0.247c0,-0.412 0,-0.823 0,-1.235c1.114,-0.353 2.129,0.667 2.737,0c-0.534,-0.459 -1.823,-0.167 -2.737,-0.248c0,-0.082 0,-0.165 0,-0.247s0,-0.164 0,-0.248c0.995,0.083 1.381,-0.439 2.487,-0.246z" fill="#E2726D" clip-rule="evenodd" fill-rule="evenodd"/>
<path id="svg_264" d="m151.476,66.289c0.637,0.226 1.41,0.401 1.742,-0.247c0.082,0 0.165,0 0.249,0c1.637,-0.032 3.919,-1.07 4.477,0c0.454,-1.042 1.005,-0.608 1.99,-0.989c0.248,0 0.498,0 0.746,0c0.041,-0.287 -0.055,-0.439 -0.249,-0.494c0.109,-0.36 0.218,0.025 0.498,0c1.216,0.59 1.189,-0.028 1.74,0c-0.313,0.762 -0.271,1.874 -0.995,2.225c-0.136,-0.359 0.291,-1.278 -0.249,-1.235c0.007,0.399 -0.183,0.669 -0.497,0.741c-2.174,0.505 -6.675,0.406 -8.707,0.494c-0.287,0.012 -0.568,-0.365 -0.745,-0.495z" fill="#E2726D" clip-rule="evenodd" fill-rule="evenodd"/>
<path id="svg_265" d="m160.431,64.063c0.279,0.052 0.387,0.274 0.498,0.495c-0.28,0.025 -0.389,-0.36 -0.498,0c0.193,0.055 0.289,0.208 0.249,0.494c-0.249,0 -0.498,0 -0.746,0c0,-0.164 0,-0.329 0,-0.494c0.242,-0.007 0.193,-0.302 0.248,-0.495c0.083,0 0.166,0 0.249,0z" fill="#9C8E89" clip-rule="evenodd" fill-rule="evenodd"/>
<path id="svg_266" d="m150.48,65.793c1.273,-0.137 1.642,0.897 2.738,0.248c-0.332,0.648 -1.104,0.473 -1.742,0.247c-0.434,0.019 -0.774,-0.055 -0.996,-0.247c0,-0.082 0,-0.164 0,-0.248z" fill="#CBBFBB" clip-rule="evenodd" fill-rule="evenodd"/>
<path id="svg_267" d="m129.836,72.717c0.073,0.65 -0.966,0.195 -0.747,0.99c0.139,0.515 0.748,-0.367 0.25,0.494c-0.543,-0.038 -0.535,-0.623 -0.498,-1.237c0.519,0.105 0.659,-0.168 0.995,-0.247z" fill="#2E2C28" clip-rule="evenodd" fill-rule="evenodd"/>
<path id="svg_268" d="m70.137,63.816c1.03,-0.099 0.144,-0.737 0.995,-0.742c-0.125,1.727 -2.585,1.03 -3.482,0.742c0.28,-0.38 0.715,-0.608 0.995,-0.989c0.349,0.087 0.022,0.436 -0.249,0.495c0.11,0.219 0.218,0.442 0.498,0.494c0.414,0 0.83,0 1.243,0z" fill="#7C1416" clip-rule="evenodd" fill-rule="evenodd"/>
<path id="svg_269" d="m68.895,63.816c-0.279,-0.356 -0.269,-0.604 0.248,-0.742c-0.658,0.632 0.34,0.491 0.995,0.495c0,0.083 0,0.165 0,0.247c-0.414,0 -0.83,0 -1.243,0z" fill="#E2726D" clip-rule="evenodd" fill-rule="evenodd"/>
<path id="svg_270" d="m126.601,65.547c-0.132,-0.357 0.97,-0.604 0.25,-0.742c-0.193,-0.054 -0.29,-0.207 -0.25,-0.494c1.101,-0.143 1.807,-0.678 2.488,-1.237c0.014,0.317 0.319,0.343 0.25,0.742c-0.512,-0.5 -0.497,0.102 -0.747,0.495c-0.202,0.047 -0.248,0.247 -0.496,0.247c0.046,-0.2 0.249,-0.246 0.248,-0.495c-0.463,0.034 -0.832,0.162 -0.994,0.495c0.201,0.046 0.247,0.248 0.497,0.247c-0.088,0.324 -0.438,0.39 -0.497,0.742c-0.25,0 -0.296,0.201 -0.498,0.246c0.044,-0.209 -0.099,-0.232 -0.251,-0.246z" fill="#CBBFBB" clip-rule="evenodd" fill-rule="evenodd"/>
<path id="svg_271" d="m124.611,64.805c0.152,0.015 0.295,0.037 0.25,0.247c-0.083,0 -0.167,0 -0.25,0c-0.367,0.129 -0.626,0.367 -0.994,0.495c0.216,-0.361 0.372,-0.784 0.994,-0.742z" fill="#CBBFBB" clip-rule="evenodd" fill-rule="evenodd"/>
<path id="svg_272" d="m68.895,65.547c0.883,-0.385 0.149,0.84 0.746,0.741c0.036,0.778 -0.638,0.85 -1.244,0.989c0.163,-0.332 0.532,-0.461 0.996,-0.495c-0.397,-0.182 0.056,-1.209 -0.747,-0.989c0,-0.082 0,-0.164 0,-0.246c0.082,0 0.165,0 0.249,0z" fill="#E2726D" clip-rule="evenodd" fill-rule="evenodd"/>
<path id="svg_273" d="m68.645,65.793c0.803,-0.22 0.35,0.807 0.747,0.989c-0.463,0.034 -0.833,0.164 -0.996,0.495c-0.046,0.366 -0.601,0.227 -0.995,0.247c-0.015,-0.15 -0.037,-0.293 -0.249,-0.247c0.168,-0.575 0.827,-0.663 0.994,-1.236c0.251,0.002 0.297,-0.2 0.499,-0.248zm-1.244,1.485c0.477,-0.104 1.07,-0.089 0.995,-0.741c-0.623,-0.044 -0.778,0.379 -0.995,0.741z" fill="#CBBFBB" clip-rule="evenodd" fill-rule="evenodd"/>
<path id="svg_274" d="m150.48,76.673c0.403,0.59 0.652,1.331 1.245,1.731c2.516,-1.014 1.034,-5.123 1.742,-6.923c0.995,0.512 -0.088,1.829 0.994,1.483c-1.373,1.381 -0.112,4.096 0,6.181c-1.317,-0.073 -2.542,-0.054 -2.984,0.742c-0.783,-0.119 -0.972,0.352 -1.493,0.494c0.288,-0.802 -0.759,-1.52 0,-1.978c-0.771,-0.397 -2.017,-1.329 -2.984,-0.742c-0.125,-2.102 2.786,-1.187 2.984,-2.966c-0.39,-0.024 -0.862,0.032 -0.746,-0.495c0.433,0.018 0.773,-0.055 0.995,-0.248c0,0.495 0,0.989 0,1.483c-0.774,0.056 -0.42,1.231 -0.498,1.979c0.646,0.149 0.894,-0.098 0.745,-0.741z" fill="#AA1F23" clip-rule="evenodd" fill-rule="evenodd"/>
<path id="svg_275" d="m152.471,76.673c-0.294,0.367 -0.215,1.105 -0.995,0.989c-0.151,-0.014 -0.294,-0.038 -0.248,-0.246c0.981,0.316 0.601,-0.722 1.243,-0.743z" fill="#2E2C28" clip-rule="evenodd" fill-rule="evenodd"/>
<path id="svg_276" d="m150.48,74.942c0.096,-2.296 -0.479,-5.256 1.245,-5.934c1.065,0.012 0.663,1.484 0.746,2.473c0,1.317 0,2.636 0,3.955c0.028,0.616 0.466,0.767 0,1.236c-0.642,0.021 -0.262,1.059 -1.243,0.743c0.055,-0.469 -0.281,-0.546 -0.25,-0.989c-0.49,-0.171 0.062,-1.38 -0.498,-1.484z" fill="#14100F" clip-rule="evenodd" fill-rule="evenodd"/>
<path id="svg_277" d="m131.079,67.772c-0.059,-0.319 -0.411,-0.061 -0.497,-0.247c-0.416,-0.912 2.116,-0.296 0.249,0.494c-0.492,0.208 0.191,-0.54 0.248,-0.247z" fill="none" clip-rule="evenodd" fill-rule="evenodd"/>
<path id="svg_278" d="m106.952,67.278c0.317,-0.014 0.344,-0.317 0.746,-0.248c0.001,0.249 -0.202,0.295 -0.249,0.495c-0.073,0.504 -0.673,0.485 -0.747,0.988c-0.718,0.111 -0.587,1.064 -1.244,1.236c-0.495,0.004 -0.317,0.675 -0.996,0.495c-0.07,-0.399 0.236,-0.425 0.25,-0.741c0.851,-0.639 1.598,-1.38 2.24,-2.225z" fill="#CBBFBB" clip-rule="evenodd" fill-rule="evenodd"/>
<path id="svg_279" d="m131.079,69.998c0.11,-0.359 0.219,0.025 0.498,0c0,0.247 0,0.495 0,0.741c-0.146,0.515 -0.522,0.799 -0.746,1.236c-0.167,0 -0.332,0 -0.498,0c-0.083,0 -0.166,0 -0.248,0c0.047,-0.2 0.248,-0.246 0.248,-0.493c0.368,-0.129 0.627,-0.367 0.995,-0.495c-0.021,-0.392 0.12,-0.943 -0.249,-0.989z" fill="#9C8E89" clip-rule="evenodd" fill-rule="evenodd"/>
<path id="svg_280" d="m126.601,72.717c1.425,0.015 2.111,-0.705 3.483,-0.743c-1.135,0.687 -2.603,1.04 -4.229,1.237c0.005,-0.408 0.69,-0.138 0.746,-0.494z" fill="#AA1F23" clip-rule="evenodd" fill-rule="evenodd"/>
<path id="svg_281" d="m125.855,73.212c1.626,-0.197 3.094,-0.551 4.229,-1.237c0.082,0 0.165,0 0.248,0c-0.12,0.293 -0.264,0.562 -0.497,0.743c-0.336,0.079 -0.476,0.352 -0.995,0.247c-0.037,0.614 -0.046,1.199 0.498,1.237c0.151,0.014 0.293,0.037 0.248,0.247c-0.083,0 -0.166,0 -0.248,0c-0.402,0.069 -0.428,-0.234 -0.747,-0.247c-0.195,-0.548 -1.539,0.047 -1.243,-0.989c-0.295,0.285 -0.88,0.28 -1.493,0.247c-0.138,0 -0.281,-0.201 0,-0.248z" fill="#7C1416" clip-rule="evenodd" fill-rule="evenodd"/>
<path id="svg_282" d="m128.591,74.201c-1.064,-0.014 -1.822,-0.332 -2.736,-0.494c0,-0.083 0,-0.165 0,-0.248c0.613,0.033 1.198,0.038 1.493,-0.247c-0.296,1.037 1.048,0.441 1.243,0.989z" fill="#AA1F23" clip-rule="evenodd" fill-rule="evenodd"/>
<path id="svg_283" d="m93.021,74.696c0.415,0 0.829,0 1.245,0c-0.304,0.356 -0.95,0.374 -1.245,0.74c0.006,-0.361 -1.048,-0.783 0,-0.74z" fill="#CBBFBB" clip-rule="evenodd" fill-rule="evenodd"/>
<path id="svg_284" d="m130.333,74.942c0.31,0.517 0.723,0.929 1.244,1.236c0,0.164 0,0.33 0,0.494c-0.799,-0.437 -1.086,-0.646 -1.741,-0.741c0.277,-0.304 0.216,-0.508 -0.25,-0.495c-0.159,-0.539 0.705,-0.786 -0.248,-0.74c0,-0.084 0,-0.166 0,-0.248c0.082,0 0.165,0 0.248,0c0.428,-0.013 0.638,0.191 0.747,0.494z" fill="#CBBFBB" clip-rule="evenodd" fill-rule="evenodd"/>
<path id="svg_285" d="m131.577,76.179c-0.521,-0.307 -0.935,-0.719 -1.244,-1.236c0.294,0.121 0.565,0.264 0.746,0.494c0.06,0.353 0.41,0.417 0.498,0.742z" fill="#74655F" clip-rule="evenodd" fill-rule="evenodd"/>
<path id="svg_286" d="m122.871,79.641c-0.209,-0.533 -1.283,-0.209 -1.493,-0.742c1.068,-0.143 2.082,1.049 2.737,0.494c-0.139,0.001 -0.283,-0.199 0,-0.247c0.279,0.052 0.387,0.275 0.497,0.495c-0.464,0.484 -0.911,0.076 -1.492,0c-0.083,0 -0.166,0 -0.249,0z" fill="#CBBFBB" clip-rule="evenodd" fill-rule="evenodd"/>
<path id="svg_287" d="m113.418,78.404c-0.278,-0.356 -0.268,-0.604 0.25,-0.742c0.292,0.369 1.033,0.292 0.994,0.989c0.407,0.667 0.973,1.176 1.742,1.484c-0.039,0.614 -0.842,0.071 -0.996,0c-0.931,-0.31 -1.095,-1.384 -1.99,-1.731z" fill="#CBBFBB" clip-rule="evenodd" fill-rule="evenodd"/>
<path id="svg_288" d="m122.124,78.651c-0.698,-0.737 1.349,0.354 1.245,-0.247c0.211,-0.046 0.234,0.096 0.249,0.247c0,0.165 0,0.33 0,0.494c-0.785,0.12 -0.565,-0.758 -1.494,-0.494z" fill="#CBBFBB" clip-rule="evenodd" fill-rule="evenodd"/>
<path id="svg_289" d="m146.003,80.136c0,-0.33 0,-0.66 0,-0.99c0.25,0 0.296,0.201 0.498,0.247c0,0.331 0,0.659 0,0.989c-0.083,0 -0.166,0 -0.25,0c-0.013,-0.152 -0.036,-0.294 -0.248,-0.246z" fill="#7C1416" clip-rule="evenodd" fill-rule="evenodd"/>
<path id="svg_290" d="m132.572,80.629c-0.661,-0.084 -0.84,-0.648 -0.995,-1.236c0.41,0.333 0.856,0.632 0.995,1.236z" fill="none" clip-rule="evenodd" fill-rule="evenodd"/>
<path id="svg_291" d="m110.434,80.629c0.046,-0.366 0.602,-0.226 0.994,-0.247c-0.042,0.537 0.883,0.112 1.244,0.247c-0.04,0.29 -0.454,0.209 -0.746,0.248c-0.613,0.032 -1.199,0.037 -1.492,-0.248z" fill="#CBBFBB" clip-rule="evenodd" fill-rule="evenodd"/>
<path id="svg_292" d="m131.327,81.124c-0.782,0.118 -0.972,-0.352 -1.491,-0.495c-0.186,-0.557 -1.395,-0.096 -1.99,-0.247c-0.166,0 -0.331,0 -0.497,0c0,-0.082 0,-0.164 0,-0.246c1.269,-0.238 3.319,-0.093 3.978,0.988z" fill="#CBBFBB" clip-rule="evenodd" fill-rule="evenodd"/>
<path id="svg_293" d="m157.694,81.124c0.221,0.191 0.563,0.266 0.996,0.248c0,-0.248 0,-0.495 0,-0.743c0.249,0 0.498,0 0.746,0c-0.461,0.476 -0.456,0.196 -0.249,0.989c-0.661,-0.003 -1.465,0.137 -1.493,-0.494z" fill="#9C8E89" clip-rule="evenodd" fill-rule="evenodd"/>
<path id="svg_294" d="m133.318,80.877c0,-0.083 0,-0.166 0,-0.248c0.152,0.014 0.294,0.038 0.249,0.248c0.021,0.351 0.041,0.7 -0.249,0.741c-0.106,0.683 0.927,0.231 0.994,0.743c-0.998,-0.278 -1.965,0.33 -2.238,-0.989c0.495,0.513 1.063,0.007 1.244,-0.495z" fill="#74655F" clip-rule="evenodd" fill-rule="evenodd"/>
<path id="svg_295" d="m133.567,80.877c0.852,0.569 0.351,0.955 1.243,1.484c-0.165,0 -0.331,0 -0.498,0c-0.067,-0.511 -1.101,-0.06 -0.994,-0.743c0.289,-0.041 0.27,-0.39 0.249,-0.741z" fill="#584C49" clip-rule="evenodd" fill-rule="evenodd"/>
<path id="svg_296" d="m159.436,81.372c-0.356,-0.772 1.849,-0.772 1.493,0c-0.202,-0.047 -0.249,-0.249 -0.498,-0.248c-0.446,-0.031 -0.526,0.303 -0.995,0.248z" fill="#74655F" clip-rule="evenodd" fill-rule="evenodd"/>
<path id="svg_297" d="m159.436,81.372c0.47,0.056 0.55,-0.279 0.995,-0.248c0.131,0.198 0.26,0.4 0.249,0.742c-0.617,0.036 -1.208,0.046 -1.244,-0.494z" fill="#9C8E89" clip-rule="evenodd" fill-rule="evenodd"/>
<path id="svg_298" d="m69.392,81.866c0.249,0 0.497,0 0.745,0c-0.046,-0.201 -0.25,-0.247 -0.249,-0.494c0.447,-0.032 0.583,0.245 0.498,0.741c-0.332,0 -0.663,0 -0.995,0c0.001,-0.082 0.001,-0.165 0.001,-0.247z" fill="#E2726D" clip-rule="evenodd" fill-rule="evenodd"/>
<path id="svg_299" d="m146.501,82.854c1.795,0.427 6.16,0.767 8.954,0.249c0,-0.164 0,-0.33 0,-0.495c0.25,0 0.296,0.2 0.498,0.247c0,0.084 0,0.165 0,0.249c-0.473,0.932 -2.494,0.322 -3.731,0.495c-1.327,0 -2.653,0 -3.979,0c-0.581,0 -1.162,0 -1.741,0c-0.001,-0.25 -0.001,-0.497 -0.001,-0.745z" fill="#CBBFBB" clip-rule="evenodd" fill-rule="evenodd"/>
<path id="svg_300" d="m218.636,114.75c-0.424,0.486 -0.581,1.235 -1.244,1.484c0.423,-0.486 0.582,-1.236 1.244,-1.484z" fill="#9C8E89" clip-rule="evenodd" fill-rule="evenodd"/>
<path id="svg_301" d="m83.072,52.442c4.844,-0.212 9.172,-0.938 13.432,-1.73c0.003,0.492 0.678,0.314 0.498,0.989c-0.726,0.22 -0.859,0.314 -1.244,-0.247c-0.766,1.6 -2.792,0.456 -4.229,1.236c-0.038,-0.291 0.044,-0.702 -0.249,-0.743c-0.549,0.356 0.314,0.604 -0.248,0.743c-4.132,-0.559 -4.702,1.128 -7.96,-0.248z" fill="#2E2C28" clip-rule="evenodd" fill-rule="evenodd"/>
<path id="svg_302" d="m140.779,62.581c-0.415,-0.437 -0.832,0.219 -1.74,0c0.177,-0.673 -1.173,0.176 -0.996,-0.495c1.078,0 2.157,0 3.234,0c0,0.082 0,0.165 0,0.247c-0.193,0.055 -0.491,0.006 -0.498,0.248z" fill="#AA1F23" clip-rule="evenodd" fill-rule="evenodd"/>
<path id="svg_303" d="m69.143,63.074c0.509,-0.14 1.866,0.075 0.995,0.495c-0.655,-0.004 -1.653,0.137 -0.995,-0.495z" fill="#CBBFBB" clip-rule="evenodd" fill-rule="evenodd"/>
<path id="svg_304" d="m131.577,66.042c-0.055,-0.193 -0.208,-0.288 -0.498,-0.248c-0.312,0.055 -0.508,0.386 -0.497,-0.246c0.387,-0.066 0.173,-0.543 0,-0.742c0.434,0.02 0.773,-0.054 0.995,-0.247c-0.18,0.756 0.254,0.901 0.248,1.483c-0.083,0 -0.166,0 -0.248,0z" fill="#2E2C28" clip-rule="evenodd" fill-rule="evenodd"/>
<path id="svg_305" d="m149.734,70.739c0.003,-0.654 -0.138,-1.455 0.498,-1.482c0.038,0.291 -0.042,0.701 0.248,0.741c0.057,0.467 -0.28,0.546 -0.248,0.989c-0.165,0 -0.332,0 -0.498,0c0,-0.083 0,-0.166 0,-0.248z" fill="#E2726D" clip-rule="evenodd" fill-rule="evenodd"/>
<path id="svg_306" d="m85.808,72.717c0.471,0.056 0.549,-0.278 0.995,-0.248c0.398,0.689 -1.074,0.684 -0.995,0.248z" fill="#CBBFBB" clip-rule="evenodd" fill-rule="evenodd"/>
<path id="svg_307" d="m128.591,74.201c0.319,0.013 0.345,0.316 0.747,0.247c0,0.082 0,0.164 0,0.248c0.953,-0.045 0.089,0.202 0.248,0.74c0.465,-0.013 0.526,0.191 0.25,0.495c0.654,0.095 0.942,0.304 1.741,0.741c0,0.083 0,0.165 0,0.248c-0.187,0.467 -0.743,0.171 -0.25,0.741c-0.947,-0.21 -1.35,-0.966 -1.989,-1.483c-0.225,-0.436 -0.916,-0.409 -0.996,-0.989c0.194,-0.055 0.29,-0.206 0.249,-0.493c-1.143,-0.101 -2.207,-0.28 -2.736,-0.989c0.914,0.162 1.672,0.481 2.736,0.494z" fill="#E2726D" clip-rule="evenodd" fill-rule="evenodd"/>
<path id="svg_308" d="m150.232,75.684c-0.041,0.289 0.055,0.44 0.248,0.495c0,0.164 0,0.33 0,0.494c0.149,0.643 -0.099,0.89 -0.746,0.743c0.078,-0.749 -0.276,-1.924 0.498,-1.979c0,0.083 0,0.165 0,0.247z" fill="#E2726D" clip-rule="evenodd" fill-rule="evenodd"/>
<path id="svg_309" d="m150.48,76.179c-0.193,-0.055 -0.288,-0.207 -0.248,-0.495c0.29,-0.041 0.271,-0.39 0.248,-0.741c0.56,0.104 0.008,1.313 0.499,1.484c-0.25,0 -0.297,-0.201 -0.499,-0.248z" fill="#2E2C28" clip-rule="evenodd" fill-rule="evenodd"/>
<path id="svg_310" d="m146.501,80.382c0,-0.33 0,-0.658 0,-0.989c-0.02,-0.431 0.056,-0.768 0.249,-0.988c0.289,-0.042 0.27,-0.391 0.249,-0.742c0.968,-0.587 2.214,0.345 2.984,0.742c-0.759,0.458 0.288,1.175 0,1.978c-0.71,0.612 -2.719,-0.066 -3.481,0.495c-0.001,-0.167 -0.001,-0.331 -0.001,-0.496z" fill="#E2726D" clip-rule="evenodd" fill-rule="evenodd"/>
<path id="svg_311" d="m206.945,80.629c2.363,0 -2.362,0 0,0l0,0z" fill="#584C49" clip-rule="evenodd" fill-rule="evenodd"/>
<path id="svg_312" d="m69.392,81.866c-0.304,-0.029 -0.589,-0.074 -0.498,-0.494c0.331,0 0.663,0 0.994,0c-0.001,0.248 0.202,0.293 0.249,0.494c-0.248,0 -0.496,0 -0.745,0z" fill="#CBBFBB" clip-rule="evenodd" fill-rule="evenodd"/>
<path id="svg_313" d="m135.059,84.091c-0.342,-0.485 -1.525,-0.134 -1.99,-0.495c0.249,-0.859 1.4,0.052 2.238,-0.495c0,0.33 0,0.659 0,0.989c-0.081,0.001 -0.165,0.001 -0.248,0.001z" fill="#9C8E89" clip-rule="evenodd" fill-rule="evenodd"/>
<path id="svg_314" d="m70.884,104.365c-0.743,0.355 -0.846,-0.202 -1.492,0.247c-0.117,-0.556 1.349,-0.762 1.492,-0.247z" fill="#474039" clip-rule="evenodd" fill-rule="evenodd"/>
<path id="svg_315" d="m132.82,62.333c0.293,-0.039 0.706,0.042 0.747,-0.247c1.3,-0.534 1.808,0.014 3.234,0c-0.032,0.546 -1.056,0.104 -1.493,0.247c-0.437,0.143 -1.46,-0.299 -1.492,0.248c-0.581,0 -1.161,0 -1.742,0c-0.083,0 -0.166,0 -0.249,0c0.046,-0.367 0.601,-0.228 0.995,-0.248z" fill="#74655F" clip-rule="evenodd" fill-rule="evenodd"/>
<path id="svg_316" d="m63.971,71.239" clip-rule="evenodd" fill-rule="evenodd"/>
<rect id="svg_317" height="75.637" width="30.471" fill="#CBBFBB" clip-rule="evenodd" fill-rule="evenodd" y="35.067" x="8.243"/>
<rect id="svg_318" height="75.637" width="1.191" fill="#9C8E89" clip-rule="evenodd" fill-rule="evenodd" y="35.067" x="7.547"/>
<rect id="svg_319" height="75.737" width="1.116" fill="#006838" clip-rule="evenodd" fill-rule="evenodd" y="34.967" x="38.378"/>
<path id="svg_320" d="m0.575,34.05c4.43,-1.715 42.267,-2.156 43.878,0.411" fill="#CBBFBB" clip-rule="evenodd" fill-rule="evenodd"/>
<path id="svg_321" d="m0.542,35.103c-0.787,-0.45 -0.667,-0.712 0.037,-1.07c5.813,-0.204 37.308,-0.601 43.523,0.236c0.357,0.048 0.455,0.248 0.164,0.783" fill="#584C49" clip-rule="evenodd" fill-rule="evenodd"/>
<path id="svg_322" d="m0.575,111.733c4.43,1.715 42.267,2.156 43.878,-0.411" fill="#CBBFBB" clip-rule="evenodd" fill-rule="evenodd"/>
<path id="svg_323" d="m0.542,110.681c-0.787,0.449 -0.667,0.712 0.037,1.071c5.813,0.203 37.308,0.601 43.523,-0.236c0.357,-0.049 0.455,-0.248 0.164,-0.782" fill="#584C49" clip-rule="evenodd" fill-rule="evenodd"/>
<path id="svg_324" d="m39.25,35.053l0.174,75.689l4.888,-0.044c0,0 -0.214,-1.885 0.608,-4.477c1.053,-3.31 3.179,-7.745 2.959,-10.603c-0.393,-5.096 -4.443,-18.688 -4.705,-22.478s4.836,-15.682 4.183,-23.001c-0.348,-3.883 -2.075,-8.205 -2.784,-11.128c-0.627,-2.588 -0.262,-4.016 -0.262,-4.016l-5.061,0.058z" fill="#14100F" clip-rule="evenodd" fill-rule="evenodd"/>
<path id="svg_325" d="m87.037,58.888l-28.947,11.371l-14.833,2.481l-0.131,-10.584c0,0 15.983,0.38 16.027,-0.202c0.504,-6.725 -1.979,-20.38 -1.716,-20.511c0.261,-0.132 30.057,-3.203 30.188,-3.006c0.13,0.195 1.567,1.699 1.567,1.699s-13.957,-0.117 -13.525,1.371c0.719,2.484 7.056,10.324 7.449,10.651c0.392,0.327 13.788,-1.372 13.788,-1.372l1.052,1.525c0,0 -11.182,1.284 -8.457,2.968c1.26,0.778 7.273,-0.442 7.273,-0.442l0.523,1.634l-7.324,0.167l0.13,1.045l7.063,-0.689l0.792,1.499l-10.919,0.395z" clip-rule="evenodd" fill-rule="evenodd"/>
<path id="svg_326" d="m87.037,85.735l-28.947,-11.369l-14.833,-2.483l-0.131,10.585c0,0 15.983,-0.379 16.027,0.202c0.504,6.724 -1.979,20.381 -1.716,20.513c0.261,0.13 30.057,3.201 30.188,3.006c0.13,-0.197 1.567,-1.701 1.567,-1.701s-13.957,0.116 -13.525,-1.371c0.719,-2.483 7.056,-10.324 7.449,-10.65c0.392,-0.327 13.788,1.371 13.788,1.371l1.052,-1.525c0,0 -11.182,-1.285 -8.457,-2.967c1.26,-0.777 7.273,0.441 7.273,0.441l0.523,-1.634l-7.324,-0.166l0.13,-1.045l7.063,0.688l0.792,-1.498l-10.919,-0.397z" clip-rule="evenodd" fill-rule="evenodd"/>
<g id="svg_327">
<path id="svg_328" d="m41.95,72.35l-0.011,-1.628c0,0 13.663,0.43 15.56,-0.769c1.897,-1.197 2.355,-3.158 3.335,-3.811c0.98,-0.654 5.856,-2.233 6.555,-2.979c0.698,-0.745 1.809,-1.464 1.94,-2.641c0.13,-1.176 -0.458,-1.111 -0.262,-1.895c0.195,-0.785 3.92,-2.026 4.313,-1.96c0.392,0.064 1.437,0.654 1.372,0.916c-0.065,0.26 -0.065,1.11 0.392,1.305c0.458,0.197 -0.457,0.328 2.418,0.197c2.875,-0.13 7.317,-0.784 7.906,-0.523c0.588,0.262 1.438,0.718 1.503,1.438c0.066,0.719 0,2.221 -0.915,2.875c-0.916,0.653 -17.446,6.6 -17.707,6.861c-0.262,0.261 -3.007,0.588 -3.333,0.979c-0.327,0.392 -0.907,1.157 -0.679,1.688s-22.387,-0.053 -22.387,-0.053z" fill="#ff0000" clip-rule="evenodd" fill-rule="evenodd"/>
<path id="svg_329" d="m41.967,72.377l-0.013,1.628c0,0 13.664,-0.429 15.561,0.768c1.898,1.198 2.355,3.158 3.336,3.812c0.979,0.653 5.855,2.234 6.555,2.98c0.698,0.745 1.809,1.463 1.94,2.64c0.13,1.176 -0.458,1.11 -0.263,1.896c0.198,0.784 3.921,2.025 4.313,1.959c0.393,-0.065 1.438,-0.652 1.373,-0.914c-0.064,-0.262 -0.064,-1.111 0.392,-1.308c0.458,-0.195 -0.457,-0.326 2.418,-0.195c2.874,0.131 7.318,0.784 7.906,0.522c0.588,-0.26 1.438,-0.719 1.503,-1.437c0.064,-0.72 0,-2.222 -0.915,-2.876c-0.916,-0.653 -17.447,-6.601 -17.708,-6.861c-0.262,-0.261 -3.006,-0.588 -3.333,-0.98c-0.326,-0.392 -0.694,-1.021 -0.728,-1.575c-0.033,-0.576 -22.337,-0.059 -22.337,-0.059z" fill="#ff0000" clip-rule="evenodd" fill-rule="evenodd"/>
</g>
<path id="svg_330" d="m43.976,68.952c-0.42,-0.686 0.77,-5.629 1.219,-5.806c0.44,-0.172 2.17,0.806 2.375,1.329c0.156,0.401 0.04,3.304 -0.508,4.223c-0.225,0.376 -2.864,0.615 -3.086,0.254z" fill="#CCCCCC"/>
<path id="svg_331" d="m43.976,75.851c-0.42,0.687 0.77,5.63 1.219,5.806c0.44,0.172 2.17,-0.806 2.375,-1.329c0.156,-0.399 0.04,-3.303 -0.508,-4.222c-0.225,-0.377 -2.864,-0.616 -3.086,-0.255z" fill="#CCCCCC"/>
<polygon id="svg_332" points="102.748,72.588 108.295,66.132 110.996,65.597 105.61,72.595  " clip-rule="evenodd" fill-rule="evenodd"/>
<polygon id="svg_333" points="102.748,72.546 108.295,79.003 110.996,79.538 105.61,72.541  " clip-rule="evenodd" fill-rule="evenodd"/>
<polygon id="svg_334" points="107.148,72.797 112.695,65.574 115.396,64.978 110.01,72.803  " clip-rule="evenodd" fill-rule="evenodd"/>
<polygon id="svg_335" points="107.148,72.747 112.695,79.969 115.396,80.566 110.01,72.741  " clip-rule="evenodd" fill-rule="evenodd"/>
<path id="svg_336" d="m128.841,76.246c-2.485,-2.053 -3.74,-3.604 -7.463,-2.967c3.242,0.421 4.596,1.679 7.463,2.967z" fill="none" clip-rule="evenodd" fill-rule="evenodd"/>
<polyline id="svg_337" points="115.053,67.858 117.633,64.712 120.296,64.269 117.698,67.841  " clip-rule="evenodd" fill-rule="evenodd"/>
<polyline id="svg_338" points="119.562,67.922 122.158,63.986 124.806,63.675 122.208,67.904  " clip-rule="evenodd" fill-rule="evenodd"/>
<polyline id="svg_339" points="124.151,68.053 126.733,63.575 129.182,63.332 126.798,68.03  " clip-rule="evenodd" fill-rule="evenodd"/>
<polyline id="svg_340" points="115.33,77.609 117.633,80.761 120.329,81.302 117.698,77.793  " clip-rule="evenodd" fill-rule="evenodd"/>
<polyline id="svg_341" points="119.562,77.712 122.19,81.693 124.903,82.216 122.208,77.732  " clip-rule="evenodd" fill-rule="evenodd"/>
<polyline id="svg_342" points="124.119,77.542 126.733,82.38 129.363,82.65 126.766,77.565  " clip-rule="evenodd" fill-rule="evenodd"/>
<rect id="svg_343" height="0.6" width="27.226" fill="none" clip-rule="evenodd" fill-rule="evenodd" y="72.415" x="75.112"/>
<polyline id="svg_344" points="89.933,74.048 92.395,76.139 95.183,76.641 92.438,74.038  " clip-rule="evenodd" fill-rule="evenodd"/>
<polyline id="svg_345" points="94.093,74.026 97.208,77.054 99.909,77.555 96.555,74.048  " clip-rule="evenodd" fill-rule="evenodd"/>
<polyline id="svg_346" points="98.832,74.038 102.131,78.013 104.789,78.536 101.27,74.048  " clip-rule="evenodd" fill-rule="evenodd"/>
<polyline id="svg_347" points="89.933,71.522 92.395,69.43 95.183,68.93 92.438,71.532  " clip-rule="evenodd" fill-rule="evenodd"/>
<polyline id="svg_348" points="94.093,71.543 97.208,68.517 99.909,68.016 96.555,71.522  " clip-rule="evenodd" fill-rule="evenodd"/>
<polyline id="svg_349" points="98.832,71.532 102.131,67.558 104.789,67.035 101.27,71.522  " clip-rule="evenodd" fill-rule="evenodd"/>
<g id="svg_350">
<polyline id="svg_351" points="90.636,70.921 91.867,69.875 93.261,69.625     91.954,70.863   " fill="#006838" clip-rule="evenodd" fill-rule="evenodd"/>
<polyline id="svg_352" points="94.927,70.749 96.583,69.148 97.933,68.897     96.256,70.65   " fill="#006838" clip-rule="evenodd" fill-rule="evenodd"/>
<polyline id="svg_353" points="99.631,70.619 101.46,68.445 102.883,68.2     100.955,70.569   " fill="#006838" clip-rule="evenodd" fill-rule="evenodd"/>
<polyline id="svg_354" points="90.788,74.743 92.019,75.789 93.414,76.039     92.042,74.738   " fill="#006838" clip-rule="evenodd" fill-rule="evenodd"/>
<polyline id="svg_355" points="94.89,74.743 96.593,76.45 97.917,76.531     96.141,74.738   " fill="#006838" clip-rule="evenodd" fill-rule="evenodd"/>
<polyline id="svg_356" points="99.599,74.914 101.625,77.382 102.964,77.528     100.874,74.996   " fill="#006838" clip-rule="evenodd" fill-rule="evenodd"/>
</g>
<path id="svg_357" d="m111.467,93.745c-1.848,-0.335 -5.507,-1.414 -6.468,-0.99c1.783,0.372 3.624,0.685 5.223,1.236c0.366,-0.003 2.036,0.094 1.245,-0.246z" fill="#CBBFBB" clip-rule="evenodd" fill-rule="evenodd"/>
<path id="svg_358" d="m138.776,124.09c0.034,-0.621 0.622,-3.954 0.785,-4.641c0.164,-0.685 0.915,-2.417 1.275,-2.548c0.358,-0.13 2.547,-0.195 3.495,-0.097c0.948,0.097 4.933,0.588 6.468,1.176c1.536,0.588 3.235,1.829 4.803,2.484c1.568,0.652 8.004,3.429 8.919,3.658c0.915,0.229 9.018,1.797 9.018,1.797l-34.763,-1.829z" fill="#CBBFBB" clip-rule="evenodd" fill-rule="evenodd"/>
<path id="svg_359" d="m141.553,117.621c2.679,-0.751 7.515,0.588 9.475,1.47c0.555,0.25 6.618,3.128 5.914,3.332c0.229,-0.195 -7.481,-1.11 -10.977,-2.646c-0.327,-0.144 -0.046,2.49 -1.013,2.549c-2.582,-0.523 -4.41,-0.079 -5.05,-0.127c-0.29,-0.042 -0.271,-0.391 -0.249,-0.742c0.442,-1.293 1.027,-3.59 1.9,-3.836z" fill="none" clip-rule="evenodd" fill-rule="evenodd"/>
<path id="svg_360" d="m144.723,124.221c1.242,-1.405 1.373,-1.732 1.699,-3.496c3.301,1.013 5.98,1.634 8.997,2.26c0.601,0.141 0.969,1.066 0.772,1.922c-2.417,-0.262 -10.549,-0.528 -11.468,-0.686z" fill="#ff0000" clip-rule="evenodd" fill-rule="evenodd"/>
<path id="svg_361" d="m157.465,122.489c0.588,0.327 2.745,1.046 3.725,1.504c0.98,0.457 1.732,0.915 1.732,0.915s0.587,0.195 -0.851,0.031c-1.438,-0.162 -4.179,-0.152 -4.117,-0.326c0.262,-0.719 -0.489,-2.124 -0.489,-2.124z" fill="none" clip-rule="evenodd" fill-rule="evenodd"/>
<path id="svg_362" d="m208.851,37.319c-0.112,0.329 -2.693,-1.101 -3.048,-1.825c-0.236,-0.48 -0.473,-1.003 -0.427,-1.658c0.057,-0.792 1.059,-3.343 1.486,-2.996c1.24,1.011 3.406,2.359 1.989,6.479z" stroke-width="0.2614" stroke="#1A1A1A" fill="#CBBFBB"/>
<path id="svg_363" d="m206.403,33.612c-0.099,-0.172 -0.233,-0.281 -0.084,-0.638c0.18,-0.426 0.095,-0.737 0.1,-0.811c0.003,-0.076 0.564,0.029 0.701,0.091c0.323,0.146 0.583,0.318 0.713,0.818c0.021,0.08 -0.248,-0.059 -0.407,-0.066c-0.398,-0.017 -0.375,-0.007 -0.571,0.044c-0.176,0.045 -0.226,0.185 -0.316,0.251c-0.089,0.066 -0.136,0.311 -0.136,0.311z" fill="none"/>
<path id="svg_364" d="m208.714,35.347c0.032,0.196 0.123,0.345 -0.141,0.629c-0.314,0.339 -0.341,0.658 -0.372,0.728c-0.029,0.07 -0.521,-0.222 -0.627,-0.327c-0.252,-0.248 -0.438,-0.5 -0.389,-1.015c0.007,-0.082 0.214,0.141 0.361,0.202c0.367,0.153 0.35,0.135 0.552,0.156c0.18,0.016 0.276,-0.097 0.382,-0.128c0.105,-0.029 0.234,-0.245 0.234,-0.245z" fill="none"/>
<path id="svg_365" d="m138.848,19.154c0.032,0.62 0.617,3.954 0.779,4.64c0.162,0.685 0.908,2.416 1.265,2.548c0.358,0.131 2.531,0.195 3.473,0.098c0.942,-0.098 4.9,-0.588 6.426,-1.177c1.526,-0.588 3.214,-1.829 4.772,-2.482c1.557,-0.654 7.952,-3.431 8.86,-3.659c0.909,-0.229 8.958,-1.797 8.958,-1.797l-34.533,1.829z" fill="#CBBFBB" clip-rule="evenodd" fill-rule="evenodd"/>
<path id="svg_366" d="m139.719,21.787c-0.021,-0.352 -0.041,-0.7 0.246,-0.742c0.637,-0.049 2.453,0.396 5.017,-0.127c0.961,0.059 0.682,2.692 1.006,2.549c3.473,-1.536 11.132,-2.45 10.905,-2.647c0.698,0.205 -5.324,3.083 -5.875,3.333c-1.947,0.882 -6.75,2.221 -9.413,1.469c-0.868,-0.246 -1.448,-2.542 -1.886,-3.835z" fill="none" clip-rule="evenodd" fill-rule="evenodd"/>
<path id="svg_367" d="m144.754,19.023c1.234,1.404 1.363,1.731 1.688,3.496c3.279,-1.013 5.94,-1.633 8.938,-2.259c0.595,-0.142 0.962,-1.068 0.766,-1.922c-2.401,0.26 -10.479,0.527 -11.392,0.685z" fill="#ff0000" clip-rule="evenodd" fill-rule="evenodd"/>
<path id="svg_368" d="m157.412,20.755c0.584,-0.327 2.726,-1.045 3.701,-1.502c0.973,-0.458 1.719,-0.915 1.719,-0.915s0.584,-0.196 -0.843,-0.032c-1.429,0.162 -4.152,0.152 -4.089,0.326c0.258,0.717 -0.488,2.123 -0.488,2.123z" fill="none" clip-rule="evenodd" fill-rule="evenodd"/>
<path id="svg_369" d="m209.469,108.17c-0.111,-0.328 -2.693,1.102 -3.048,1.825c-0.235,0.479 -0.473,1.002 -0.426,1.657c0.056,0.792 1.059,3.345 1.484,2.997c1.242,-1.011 3.407,-2.361 1.99,-6.479z" stroke-width="0.2614" stroke="#1A1A1A" fill="#CBBFBB"/>
<path id="svg_370" d="m207.023,111.876c-0.099,0.173 -0.235,0.282 -0.085,0.639c0.18,0.427 0.095,0.735 0.098,0.81c0.005,0.076 0.566,-0.028 0.703,-0.09c0.321,-0.146 0.583,-0.319 0.713,-0.819c0.021,-0.081 -0.25,0.059 -0.407,0.065c-0.397,0.017 -0.375,0.007 -0.571,-0.044c-0.176,-0.045 -0.228,-0.186 -0.315,-0.25c-0.091,-0.064 -0.136,-0.311 -0.136,-0.311z" fill="none"/>
<path id="svg_371" d="m209.333,110.143c0.033,-0.196 0.123,-0.345 -0.14,-0.629c-0.314,-0.339 -0.341,-0.657 -0.371,-0.727c-0.03,-0.069 -0.521,0.222 -0.628,0.327c-0.252,0.249 -0.437,0.5 -0.388,1.014c0.007,0.082 0.214,-0.141 0.361,-0.202c0.366,-0.153 0.349,-0.135 0.552,-0.155c0.18,-0.016 0.276,0.098 0.383,0.127c0.102,0.029 0.231,0.245 0.231,0.245z" fill="none"/>
<path id="svg_372" d="m227.109,111.451c8.386,-4.292 10.782,-9.823 11.958,-10.738c1.176,-0.916 9.409,-5.098 11.5,-6.012c2.091,-0.916 10.836,-3.878 11.762,-4.095c1.96,-0.458 1.895,0.13 0.327,0.783c-1.567,0.654 -11.478,4.618 -14.57,5.881c-3.103,1.268 -4.575,2.484 -7.318,4.575c-2.745,2.09 -4.41,5.765 -6.078,6.795c-1.72,1.064 -7.581,2.811 -7.581,2.811z" fill="#9C8E89" clip-rule="evenodd" fill-rule="evenodd"/>
<path id="svg_373" d="m235.408,108.054c3.18,-4.792 4.835,-6.273 10.39,-9.867c1.25,-0.81 10.184,-3.936 12.088,-4.835c2.352,-1.111 3.986,-2.615 4.966,-2.745c1.996,-0.266 2.57,0.74 1.003,1.394c-1.569,0.653 -6.012,2.832 -9.148,4.007c-3.137,1.177 -3.791,1.568 -6.97,2.832c-3.26,1.296 -6.94,3.924 -8.277,5.358c-1.221,1.307 -4.052,3.856 -4.052,3.856z" fill="#333333" clip-rule="evenodd" fill-rule="evenodd"/>
<path id="svg_374" d="m153.752,73.133c0,0 0.875,-9.775 2.201,-10.801c1.327,-1.026 9.118,-0.075 8.457,0.495c-0.662,0.57 -1.707,7.955 -1.641,10.698c0.064,2.746 -9.017,-0.392 -9.017,-0.392z" fill="#ff0000" clip-rule="evenodd" fill-rule="evenodd"/>
<path id="svg_375" d="m153.752,72.282c0,0 0.875,9.775 2.201,10.801c1.327,1.026 9.118,0.075 8.457,-0.495c-0.662,-0.57 -1.707,-7.954 -1.641,-10.698c0.064,-2.744 -9.017,0.392 -9.017,0.392z" fill="#ff0000" clip-rule="evenodd" fill-rule="evenodd"/>
<g id="svg_376">
<path id="svg_377" d="m208.6,34.106c0.67,0.43 0.21,1.303 -1.009,0.896c0.898,-0.265 0.745,-0.822 0.104,-1.199c0.044,-0.042 0.725,0.187 0.905,0.303z" fill="#ff0000" clip-rule="evenodd" fill-rule="evenodd"/>
<g id="svg_378">
<path id="svg_379" d="m200.864,27.573c0.123,0.54 0.332,0.949 0.897,1.519c0.736,0.74 0.72,0.351 2.387,1.226c2.22,1.053 2.01,1.091 2.008,1.339c-0.358,0.137 -0.318,0.297 -0.458,0.653c-0.083,0 0.9,-0.189 -2.891,-1.829c-1.813,-0.784 -2.479,-2.23 -2.288,-3.97c0.154,-0.014 0.312,1.192 0.345,1.062z" fill="#ff0000" clip-rule="evenodd" fill-rule="evenodd"/>
<path id="svg_380" d="m208.835,46.996c-4.944,-5.478 -8.696,-15.34 -8.213,-17.751c0.13,-0.653 0.097,-0.931 -0.123,-0.955c-0.219,-0.025 -0.337,-0.254 -0.311,1.16c0.099,5.17 0.373,8.921 7.471,18.462c0.348,0.468 12.779,9.061 12.873,8.886c0.069,-0.131 -11.31,-9.375 -11.697,-9.802z" fill="#ff0000" clip-rule="evenodd" fill-rule="evenodd"/>
<path id="svg_381" d="m98.034,54.336c4.668,-1.788 10.171,-2.747 15.422,-3.956c-0.644,-0.819 -2.389,0.784 -2.487,-0.742c2.265,-0.056 4.922,-1.208 6.219,0.494c-5.59,2.193 -12.512,3.06 -19.154,4.204zm12.188,-2.967c-1.6,0.552 -3.44,0.865 -5.223,1.236c0.961,0.424 4.62,-0.655 6.468,-0.989c0.791,-0.341 -0.879,-0.245 -1.245,-0.247z" fill="#ff0000" clip-rule="evenodd" fill-rule="evenodd"/>
<path id="svg_382" d="m117.188,95.228c-1.296,1.703 -3.954,0.552 -6.219,0.495c0.098,-1.526 1.843,0.078 2.487,-0.742c-5.25,-1.208 -10.754,-2.167 -15.422,-3.955c6.642,1.142 13.564,2.01 19.154,4.202zm-5.721,-1.483c-1.848,-0.335 -5.507,-1.414 -6.468,-0.99c1.783,0.372 3.624,0.685 5.223,1.236c0.366,-0.003 2.036,0.094 1.245,-0.246z" fill="#ff0000" clip-rule="evenodd" fill-rule="evenodd"/>
<path id="svg_383" d="m159.408,50.134c4.663,-2.414 10.965,-1.167 10.809,-1.896c-0.162,-0.758 -5.501,-1.644 -9.01,-1.346c-2.539,0.216 -5.69,0.695 -9.07,1.418c-3.243,0.693 -7.575,1.548 -9.933,2.355c-3.498,1.199 -2.988,2.266 -2.821,3.045c0.174,0.817 0.019,2.191 3.988,1.787c2.38,-0.241 6.759,-1.813 9.777,-2.459c3.559,-0.761 3.949,-1.708 6.26,-2.904z" fill="#ff0000" clip-rule="evenodd" fill-rule="evenodd"/>
<path id="svg_384" d="m159.213,95.789c4.663,2.413 10.965,1.166 10.809,1.896c-0.162,0.757 -5.502,1.643 -9.01,1.346c-2.54,-0.215 -5.69,-0.695 -9.07,-1.418c-3.243,-0.693 -7.576,-1.547 -9.934,-2.356c-3.498,-1.198 -2.988,-2.264 -2.821,-3.043c0.173,-0.816 0.02,-2.192 3.988,-1.788c2.379,0.243 6.759,1.814 9.777,2.46c3.558,0.759 3.949,1.705 6.261,2.903z" fill="#ff0000" clip-rule="evenodd" fill-rule="evenodd"/>
<path id="svg_385" d="m109.985,103.084c6.326,-0.981 16.605,2.59 20.875,5.118c0.007,1.512 -5.017,2.011 -5.664,2.613c-5.563,-2.183 -9.527,-5.314 -15.211,-7.731z" fill="#ff0000" clip-rule="evenodd" fill-rule="evenodd"/>
<path id="svg_386" d="m197.422,124.471c0.968,0.068 -1.012,1.948 -3.286,2.425c-1.379,0.289 -10.311,-0.356 -12.135,-0.356c-14.244,0.196 -40.061,-8.623 -41.593,-9.287c-0.075,-0.032 -10.53,-3.647 -14.11,-5.773c0.613,0.033 4.91,-1.026 5.62,-2.875c41,14.995 45.967,14.472 65.504,15.866z" fill="#ff0000" clip-rule="evenodd" fill-rule="evenodd"/>
<path id="svg_387" d="m110.246,40.159c6.284,0.982 16.497,-2.589 20.737,-5.116c0.006,-1.513 -4.985,-2.011 -5.625,-2.614c-5.527,2.182 -9.465,5.314 -15.112,7.73z" fill="#ff0000" clip-rule="evenodd" fill-rule="evenodd"/>
<path id="svg_388" d="m132.032,34.64c-0.704,-1.85 -4.974,-2.907 -5.582,-2.875c3.556,-2.127 13.941,-5.741 14.017,-5.774c1.523,-0.663 27.168,-9.483 41.318,-9.287c1.813,0 10.685,-0.645 12.055,-0.356c2.259,0.478 4.226,2.355 3.265,2.425c-19.408,1.393 -24.342,0.871 -65.073,15.867zm68.232,-7.413" fill="#ff0000" clip-rule="evenodd" fill-rule="evenodd"/>
<path id="svg_389" d="m201.531,119.337c-0.191,-1.739 0.245,-3.315 2.059,-4.1c3.79,-1.64 2.807,-1.829 2.891,-1.829c0.139,0.356 0.098,0.515 0.457,0.652c0.001,0.248 0.213,0.285 -2.009,1.339c-1.667,0.875 -1.65,0.487 -2.385,1.226c-0.566,0.571 -0.776,0.98 -0.899,1.52c0.126,0.056 0.038,1.207 -0.114,1.192z" fill="#ff0000" clip-rule="evenodd" fill-rule="evenodd"/>
<path id="svg_390" d="m221.151,88.692c-0.094,-0.174 -12.525,8.419 -12.872,8.886c-7.099,9.541 -7.373,13.292 -7.471,18.462c-0.028,1.414 0.09,1.185 0.31,1.16c0.221,-0.024 0.253,-0.303 0.123,-0.956c-0.483,-2.411 3.269,-12.273 8.213,-17.751c0.386,-0.426 11.766,-9.671 11.697,-9.801z" fill="#ff0000" clip-rule="evenodd" fill-rule="evenodd"/>
</g>
<path id="svg_391" d="m209.218,111.384c0.671,-0.43 0.209,-1.303 -1.008,-0.896c0.897,0.265 0.745,0.821 0.103,1.198c0.044,0.042 0.726,-0.187 0.905,-0.302z" fill="#ff0000" clip-rule="evenodd" fill-rule="evenodd"/>
<path id="svg_392" d="m124.761,72.936c-0.092,-0.28 4.917,-5.464 10.841,-6.336c5.926,-0.871 12.111,-1.917 12.982,-1.612c0.872,0.305 0.632,0.729 1.798,0.779c1.165,0.049 11.193,-1.73 11.193,-1.73s-0.969,7.617 -0.924,8.62c0.043,0.999 -35.89,0.279 -35.89,0.279z" fill="#ff0000" clip-rule="evenodd" fill-rule="evenodd"/>
<path id="svg_393" d="m124.761,72.927c-0.092,0.282 4.917,5.467 10.841,6.337c5.926,0.872 12.111,1.917 12.982,1.612c0.872,-0.305 1.664,-0.554 1.827,-0.653c0.68,-0.408 11.164,1.605 11.164,1.605s-0.969,-7.618 -0.924,-8.62c0.043,-1 -35.89,-0.281 -35.89,-0.281z" fill="#ff0000" clip-rule="evenodd" fill-rule="evenodd"/>
</g>
<polygon id="svg_394" points="143.493,69.082 148,66.042 149.792,66.783    161.331,66.783 160.658,73.003 147.262,73.003  " fill="#ff0000" clip-rule="evenodd" fill-rule="evenodd"/>
<polygon id="svg_395" points="143.493,76.758 148,79.799 149.792,79.056    161.331,79.056 160.658,72.837 147.262,72.837  " fill="#ff0000" clip-rule="evenodd" fill-rule="evenodd"/>
<polygon id="svg_396" points="128.079,72.823 148.627,72.823 145.564,71.04 144.461,61.069    130.78,61.316 130.337,71  " clip-rule="evenodd" fill-rule="evenodd"/>
<polygon id="svg_397" points="128.097,72.818 148.646,72.818 145.583,74.602 144.479,84.572    130.798,84.326 130.356,74.643  " clip-rule="evenodd" fill-rule="evenodd"/>
<g id="svg_398">
<path id="svg_399" d="m154.697,66.602c-0.291,1.322 -0.117,2.698 0.496,3.462c-0.069,-0.647 0.092,-1.064 0.747,-0.989c0,0.246 0,0.494 0,0.741c1.082,-0.85 2.96,-0.803 4.976,-1.235c-0.068,2.675 0.049,2.368 -0.107,5.266c-1.563,-0.066 -7.29,0.66 -6.959,-0.445c-0.257,-0.416 -0.229,-0.948 -0.358,-1.808c-0.001,0 -0.259,-3.687 1.205,-4.992z" fill="#ff0000" clip-rule="evenodd" fill-rule="evenodd"/>
<path id="svg_400" d="m154.697,79.771c-0.291,-1.323 -0.117,-2.699 0.496,-3.462c-0.069,0.647 0.092,1.064 0.747,0.989c0,-0.248 0,-0.495 0,-0.741c1.082,0.849 2.96,0.803 4.976,1.236c-0.068,-2.676 0.049,-2.368 -0.107,-5.266c-1.563,0.066 -7.29,-0.661 -6.959,0.443c-0.257,0.417 -0.229,0.947 -0.358,1.809c-0.001,-0.001 -0.259,3.685 1.205,4.992z" fill="#ff0000" clip-rule="evenodd" fill-rule="evenodd"/>
</g>
<path id="svg_401" d="m152.142,73.292c0,2.487 -0.305,4.421 -1.427,4.409c-1.048,-0.012 -1.647,-2.018 -1.647,-4.504c0,-2.488 0.196,-4.954 1.512,-4.928c1.315,0.026 1.562,2.536 1.562,5.023z" fill="#ff0000" clip-rule="evenodd" fill-rule="evenodd"/>
<path fill="#ff0000" id="svg_402" d="m151.856,73.265c0,2.261 -0.243,4.019 -1.133,4.006c-0.831,-0.01 -1.306,-1.833 -1.306,-4.093c0,-2.262 0.156,-4.505 1.199,-4.481c1.045,0.024 1.24,2.306 1.24,4.568z" clip-rule="evenodd" fill-rule="evenodd"/>
<g id="svg_403">
<rect id="svg_404" height="1.962" width="1.199" fill="#006838" clip-rule="evenodd" fill-rule="evenodd" y="69.539" x="220.009"/>
<rect id="svg_405" height="1.96" width="1.199" fill="#006838" clip-rule="evenodd" fill-rule="evenodd" y="73.504" x="220.009"/>
<text id="svg_406" font-size="6.2729" font-family="&#x27;Arial-BoldMT'" fill="#006838" transform="matrix(1,0,0,1,229.9253,82.3145) ">N</text>
<rect id="svg_407" height="8.233" width="1.14" fill="#006838" clip-rule="evenodd" fill-rule="evenodd" transform="matrix(0.9248,-0.3804,0.3804,0.9248,2.0105,80.4427) " y="31.018" x="203.965"/>
<path id="svg_408" d="m208.227,34.515c-0.043,0.336 -0.462,0.531 -0.938,0.433c-0.474,-0.097 -0.822,-0.448 -0.779,-0.784c0.045,-0.335 0.462,-0.529 0.937,-0.433c0.473,0.097 0.823,0.448 0.78,0.784z" fill="#006838" clip-rule="evenodd" fill-rule="evenodd"/>
<rect id="svg_409" height="8.232" width="1.14" fill="#006838" clip-rule="evenodd" fill-rule="evenodd" transform="matrix(0.9247,0.3807,-0.3807,0.9247,57.4699,-69.8002) " y="106.238" x="204.584"/>
<path id="svg_410" d="m208.845,110.975c-0.042,-0.336 -0.462,-0.529 -0.937,-0.433c-0.473,0.097 -0.822,0.447 -0.78,0.785c0.045,0.335 0.462,0.529 0.936,0.432c0.475,-0.097 0.825,-0.448 0.781,-0.784z" fill="#006838" clip-rule="evenodd" fill-rule="evenodd"/>
<path id="svg_411" d="m171.156,70.666c0.404,0.735 0.694,3.395 0,3.708c-0.131,-1.612 -0.013,-1.952 0,-3.708z" fill="#006838" clip-rule="evenodd" fill-rule="evenodd"/>
</g>
<path id="svg_412" d="m170.907,69.924c1.818,-0.82 2.063,4.427 0.498,4.945c0.76,-1.113 1.426,-4.594 -0.498,-4.945z" fill="#2E2C28" clip-rule="evenodd" fill-rule="evenodd"/>
<path id="svg_413" d="m170.907,70.172c0.194,0.055 0.289,0.207 0.249,0.494c-0.013,1.756 -0.13,2.096 0,3.708c-0.354,-0.058 -0.42,-0.406 -0.747,-0.494c-0.131,-0.199 -0.258,-0.401 -0.248,-0.742c-0.033,-0.611 0.305,-0.42 0.248,0c0.453,-0.292 0.196,-1.289 0.498,-1.73c-0.754,-0.391 -0.516,1.603 -0.746,0.247c-0.012,-0.754 0.226,-1.259 0.746,-1.483z" fill="#584C49" clip-rule="evenodd" fill-rule="evenodd"/>
<path id="svg_414" d="m170.907,69.924c1.923,0.351 1.258,3.832 0.498,4.945c-0.507,-0.073 -0.488,-0.669 -0.996,-0.741c0,-0.083 0,-0.165 0,-0.248c0.327,0.088 0.392,0.437 0.747,0.494c0.694,-0.313 0.404,-2.974 0,-3.708c0.041,-0.287 -0.055,-0.439 -0.249,-0.494c0,-0.083 0,-0.166 0,-0.248z" fill="#474039" clip-rule="evenodd" fill-rule="evenodd"/>
<path id="svg_415" d="m170.162,71.655c0.23,1.356 -0.008,-0.637 0.746,-0.247c-0.302,0.441 -0.045,1.438 -0.498,1.73c0.057,-0.42 -0.28,-0.611 -0.248,0c-0.409,0.041 -0.409,-1.524 0,-1.483z" fill="#474039" clip-rule="evenodd" fill-rule="evenodd"/>
<path id="svg_416" d="m301.285,73.559" fill="#74655F" clip-rule="evenodd" fill-rule="evenodd"/>
<polygon id="svg_417" points="302.592,75.926 301.111,73.527 301.173,70.46    315.361,70.481 316.32,68.166 318.093,68.207 318.072,76.531 316.195,76.448 315.403,74.403 304.7,74.216 305.347,75.821  " fill="#CBBFBB" clip-rule="evenodd" fill-rule="evenodd"/>
<g id="svg_418">
<g id="svg_419">
<path id="svg_420" d="m339.609,118.171c-6.438,-0.359 -10.346,-2.941 -15.117,-2.778c2.57,3.964 1.523,10.228 1.523,10.228l12.939,-0.294c0.001,-0.001 -0.391,-5.032 0.655,-7.156z" fill="#ff0000" clip-rule="evenodd" fill-rule="evenodd"/>
<path id="svg_421" d="m339.609,25.793c-6.438,0.359 -10.346,2.94 -15.117,2.776c2.57,-3.963 1.523,-10.227 1.523,-10.227l12.939,0.295c0.001,0.001 -0.391,5.032 0.655,7.156z" fill="#ff0000" clip-rule="evenodd" fill-rule="evenodd"/>
</g>
<polygon id="svg_422" points="302.808,75.803 301.558,73.619 301.558,70.88     315.648,70.88 316.591,68.519 317.775,68.573 317.718,76.208 316.437,76.196 315.698,74.145 304.252,73.955 304.942,75.623   " fill="#ff0000" clip-rule="evenodd" fill-rule="evenodd"/>
</g>
<polygon id="svg_423" points="302.929,75.368 301.821,73.431 301.799,71.185    315.798,71.158 316.663,68.933 317.52,68.919 317.473,75.771 316.577,75.731 315.855,73.749 303.707,73.505 304.429,75.165  " fill="#74655F" clip-rule="evenodd" fill-rule="evenodd"/>
<polygon stroke="#ff0000" id="svg_424" points="302.989,74.924 302.091,73.36 302.091,71.565    316.008,71.44 316.8,69.187 317.279,69.167 317.239,75.321 316.8,75.321 316.048,73.465 303.398,73.364 304.011,74.821  " fill="#ff0000" clip-rule="evenodd" fill-rule="evenodd"/>
<path id="svg_425" d="m369.164,69.321c2.064,-0.111 3.414,0.626 4.368,1.766c0.118,0.142 0.36,0.377 0.36,0.519c0.004,0.268 -0.63,0.849 -0.791,0.996c-0.668,0.615 -1.323,0.991 -2.354,1.2c-0.497,0.101 -1.175,0.158 -1.583,0.09c-0.705,-0.936 -0.703,-3.669 0,-4.571zm1.539,0.228c-0.289,-0.055 -1.258,-0.244 -1.492,-0.092c-0.08,0.052 -0.171,0.331 -0.228,0.521c-0.27,0.9 -0.284,2.144 -0.068,3.054c0.06,0.25 0.179,0.677 0.317,0.748c0.151,0.076 0.535,0.022 0.792,0c1.84,-0.167 2.983,-1.006 3.734,-2.174c-0.74,-1.066 -1.57,-1.772 -3.055,-2.057z" stroke-width="0.5703" stroke="#8CC63F" fill="#ff0000" clip-rule="evenodd" fill-rule="evenodd"/>
<path id="svg_426" d="m330.291,82.039c6.639,0.395 11.932,-0.388 19.395,-0.51c1.658,-0.066 3.314,-0.13 4.971,-0.195c-0.071,-0.532 -3.197,0.011 -4.483,-0.072c-3.479,0.135 -6.959,0.272 -10.438,0.408c-0.166,0.006 -0.333,0.013 -0.499,0.02c-0.247,0.01 -0.496,0.019 -0.744,0.029c-0.581,0.022 -1.159,0.045 -1.739,0.067c-0.249,0.01 -0.498,0.02 -0.747,0.029c-0.331,0.013 -0.663,0.026 -0.993,0.039c-0.498,0.02 -0.996,0.039 -1.494,0.058c-1.076,0.043 -2.153,0.085 -3.229,0.127z" fill="#8CC63F" clip-rule="evenodd" fill-rule="evenodd"/>
</g>
 </g>
 </g>
 </g>
</svg>
